<svg width="1350" height="1707" viewBox="0 0 1350 1707" fill="none" xmlns="http://www.w3.org/2000/svg">
    <defs>
        <style>
            .ring {
                animation: blink 2s infinite;
            }

            .ring-slow {
                animation: blink 4s infinite;
            }

            .ring-half {
                animation: half-blink 2s infinite;
            }

            @keyframes blink {
                0% {
                    opacity: 1;
                }

                50% {
                    opacity: 0.5;
                }

                100% {
                    opacity: 1;
                }
            }

            @keyframes half-blink {
                0% {
                    opacity: 1;
                }

                50% {
                    opacity: 0.75;
                }

                100% {
                    opacity: 1;
                }
            }
        </style>
    </defs>
<g id="GithubReadme">
<rect id="Rectangle 3" y="0.000732422" width="1350" height="1707" rx="56" fill="#0D1117"/>
<path id="Welcome Traveller" d="M304.047 1188.02C303.422 1188.92 302.312 1189.38 300.719 1189.38C299.156 1189.38 297.828 1188.94 296.734 1188.06C295.641 1187.19 294.734 1186.09 294.016 1184.78C292.578 1182.16 291.859 1179.53 291.859 1176.91C291.859 1174.28 292.141 1171.59 292.703 1168.84C293.297 1166.09 294.094 1163.2 295.094 1160.17C296.094 1157.11 297.25 1153.98 298.562 1150.8C299.906 1147.61 301.328 1144.5 302.828 1141.47C305.891 1135.16 308.938 1129.69 311.969 1125.06H311.453C307.734 1125.06 304.281 1125.91 301.094 1127.59C300.312 1128.19 299.562 1128.48 298.844 1128.48C297.344 1128.48 295.891 1127.75 294.484 1126.28C291.234 1122.84 293.172 1120 300.297 1117.75C303.641 1116.66 306.328 1116.11 308.359 1116.11C310.422 1116.11 312.078 1116.44 313.328 1117.09C314.578 1117.72 315.641 1118.47 316.516 1119.34C317.891 1120.72 318.859 1122.08 319.422 1123.42C320.016 1124.77 320.312 1125.95 320.312 1126.98C320.312 1127.98 320 1129.34 319.375 1131.06C318.781 1132.75 318.016 1134.56 317.078 1136.5L313.891 1142.69C312.766 1144.84 311.641 1147.11 310.516 1149.48C309.391 1151.86 308.266 1154.23 307.141 1156.61C306.016 1158.98 305.016 1161.3 304.141 1163.55C302.234 1168.58 301.281 1172.84 301.281 1176.34C301.281 1178.28 301.469 1179.95 301.844 1181.36L306.766 1173.16C316.766 1157.03 326.641 1144.91 336.391 1136.78C339.141 1134.47 341.859 1132.66 344.547 1131.34C344.984 1131.12 345.5 1131.02 346.094 1131.02C346.688 1131.02 347.312 1131.09 347.969 1131.25C348.656 1131.38 349.297 1131.58 349.891 1131.86C351.266 1132.52 351.953 1133.31 351.953 1134.25C351.953 1134.69 351.797 1135.09 351.484 1135.47L349.844 1137.25C343.594 1143.88 339.391 1153.12 337.234 1165C336.547 1168.66 336.203 1171.56 336.203 1173.72C336.203 1175.84 336.266 1177.3 336.391 1178.08C336.516 1178.86 336.766 1179.59 337.141 1180.28C337.984 1181.84 339.25 1182.62 340.938 1182.62C342.625 1182.62 344.5 1182 346.562 1180.75C348.625 1179.5 350.703 1177.78 352.797 1175.59C354.922 1173.41 356.969 1170.84 358.938 1167.91C360.938 1164.94 362.703 1161.77 364.234 1158.39C367.672 1150.92 369.391 1143.8 369.391 1137.02C369.391 1131.8 368.234 1127.38 365.922 1123.75C365.297 1122.81 365.906 1121.59 367.75 1120.09C369.625 1118.53 371.734 1117.75 374.078 1117.75C377.172 1117.75 379.266 1120.5 380.359 1126C380.734 1127.81 380.922 1130.19 380.922 1133.12C380.922 1136.06 380.562 1139.3 379.844 1142.83C379.125 1146.36 378.109 1149.81 376.797 1153.19C375.516 1156.53 373.984 1159.75 372.203 1162.84C370.453 1165.94 368.531 1168.83 366.438 1171.52C364.344 1174.2 362.125 1176.66 359.781 1178.88C357.438 1181.06 355.047 1182.94 352.609 1184.5C347.578 1187.81 342.812 1189.47 338.312 1189.47C334.188 1189.47 331.109 1187.84 329.078 1184.59C327.297 1181.78 326.406 1178.2 326.406 1173.86C326.406 1166.67 327.797 1159.69 330.578 1152.91C327.984 1155.81 325.453 1158.81 322.984 1161.91C316.859 1169.91 312.594 1175.64 310.188 1179.11L304.047 1188.02ZM379.422 1172.59C379.547 1169.88 380 1167.28 380.781 1164.81C381.562 1162.31 382.609 1159.91 383.922 1157.59C385.234 1155.25 386.766 1153.05 388.516 1150.98C390.297 1148.89 392.219 1147.06 394.281 1145.5C398.75 1142.16 403.266 1140.48 407.828 1140.48C413.172 1140.48 416.734 1142.69 418.516 1147.09C419.141 1148.59 419.438 1150.38 419.406 1152.44C419.375 1154.47 418.984 1156.36 418.234 1158.11C417.484 1159.83 416.438 1161.41 415.094 1162.84C413.781 1164.25 412.203 1165.52 410.359 1166.64C408.547 1167.77 406.562 1168.72 404.406 1169.5C399.969 1171.06 395.219 1171.88 390.156 1171.94C390.031 1172.38 389.953 1173.03 389.922 1173.91C389.891 1174.78 389.984 1175.77 390.203 1176.86C390.422 1177.92 390.797 1178.88 391.328 1179.72C392.453 1181.59 394.078 1182.53 396.203 1182.53C399.828 1182.53 403.359 1181.47 406.797 1179.34C408.016 1178.62 409 1177.89 409.75 1177.14C410.531 1176.36 411.203 1175.97 411.766 1175.97C412.328 1175.97 412.812 1176.31 413.219 1177C413.656 1177.66 413.875 1178.41 413.875 1179.25C413.875 1180.91 413.406 1182.34 412.469 1183.56C408.531 1187.5 402.672 1189.47 394.891 1189.47C390.297 1189.47 386.609 1188.09 383.828 1185.34C380.703 1182.22 379.234 1177.97 379.422 1172.59ZM406.797 1146.72C403.516 1146.72 400.359 1148.97 397.328 1153.47C394.766 1157.34 392.703 1161.94 391.141 1167.25C396.359 1166.72 400.891 1164.66 404.734 1161.06C408.266 1157.69 410.031 1154.45 410.031 1151.36C410.031 1148.27 408.953 1146.72 406.797 1146.72ZM426.531 1187.12C425.75 1186.31 425.109 1185.28 424.609 1184.03C424.141 1182.75 423.906 1181.28 423.906 1179.62C423.906 1177.94 424.281 1175.69 425.031 1172.88C425.812 1170.06 426.797 1166.86 427.984 1163.27L431.922 1151.59C437.516 1135.34 440.75 1122.78 441.625 1113.91C441.906 1111.28 443.188 1109.97 445.469 1109.97C446.906 1109.97 448.094 1110.31 449.031 1111C450.844 1112.38 451.719 1113.91 451.656 1115.59C451.594 1117.28 451.297 1119.34 450.766 1121.78C450.234 1124.19 449.547 1126.83 448.703 1129.7C447.859 1132.55 446.891 1135.56 445.797 1138.75L439.328 1157.78C435.609 1168.59 433.75 1175.58 433.75 1178.73C433.75 1180.42 434.438 1181.27 435.812 1181.27C437.125 1181.27 438.312 1180.98 439.375 1180.42C440.469 1179.86 441.172 1179.58 441.484 1179.58C442.141 1179.58 442.469 1179.91 442.469 1180.56C442.469 1183.34 441.047 1185.67 438.203 1187.55C436.297 1188.83 434.547 1189.47 432.953 1189.47C431.391 1189.47 430.125 1189.28 429.156 1188.91C428.188 1188.53 427.312 1187.94 426.531 1187.12ZM450.859 1172.83C450.922 1170.11 451.344 1167.41 452.125 1164.72C452.938 1162 454 1159.44 455.312 1157.03C456.656 1154.62 458.234 1152.41 460.047 1150.38C461.891 1148.34 463.891 1146.59 466.047 1145.12C470.547 1142.03 475.281 1140.48 480.25 1140.48C485.375 1140.48 488.859 1142.53 490.703 1146.62C491.359 1148.09 491.656 1149.77 491.594 1151.64C491.562 1153.48 491.266 1155.19 490.703 1156.75C490.141 1158.28 489.438 1159.66 488.594 1160.88C486.688 1163.62 484.766 1165 482.828 1165C480.672 1165 479.078 1164.41 478.047 1163.22C477.141 1162.19 476.859 1160.98 477.203 1159.61C477.297 1159.2 477.578 1158.84 478.047 1158.53C478.516 1158.19 479.109 1157.66 479.828 1156.94C481.859 1154.81 482.922 1152.33 483.016 1149.48C483.078 1147.55 481.891 1146.58 479.453 1146.58C476.828 1146.58 474.078 1148.05 471.203 1150.98C467.016 1155.27 464.062 1160.75 462.344 1167.44C460.844 1173.25 461.125 1177.5 463.188 1180.19C464.406 1181.75 466.062 1182.53 468.156 1182.53C471.688 1182.53 475.094 1181.28 478.375 1178.78C479.375 1178 480.188 1177.2 480.812 1176.39C481.438 1175.58 482.016 1175.17 482.547 1175.17C483.078 1175.17 483.516 1175.44 483.859 1175.97C484.234 1176.47 484.422 1177.12 484.422 1177.94C484.422 1179.78 483.594 1181.59 481.938 1183.38C477.688 1187.44 472.578 1189.47 466.609 1189.47C461.516 1189.47 457.578 1188.02 454.797 1185.11C452.047 1182.23 450.734 1178.14 450.859 1172.83ZM500.125 1185.81C498.812 1184.56 497.781 1182.98 497.031 1181.08C496.281 1179.14 495.891 1176.86 495.859 1174.23C495.828 1171.61 496.141 1168.95 496.797 1166.27C497.484 1163.58 498.438 1160.98 499.656 1158.48C500.906 1155.98 502.391 1153.64 504.109 1151.45C505.859 1149.27 507.781 1147.36 509.875 1145.73C514.438 1142.23 519.172 1140.48 524.078 1140.48C530.516 1140.48 534.875 1143.31 537.156 1148.97C538.781 1153.06 538.875 1158.02 537.438 1163.83C536.125 1169.17 533.719 1174.08 530.219 1178.55C526.75 1183.02 522.656 1186.19 517.938 1188.06C515.562 1189 513.219 1189.47 510.906 1189.47C508.625 1189.47 506.578 1189.17 504.766 1188.58C502.984 1187.98 501.438 1187.06 500.125 1185.81ZM509.078 1163.08C508.141 1165.39 507.391 1167.77 506.828 1170.2C506.297 1172.64 506.047 1174.95 506.078 1177.14C506.109 1179.3 506.438 1181 507.062 1182.25C507.719 1183.47 508.766 1184.08 510.203 1184.08C511.641 1184.08 513.047 1183.59 514.422 1182.62C515.828 1181.62 517.188 1180.31 518.5 1178.69C519.812 1177.06 521.047 1175.19 522.203 1173.06C523.359 1170.94 524.375 1168.72 525.25 1166.41C527.156 1161.38 528.078 1156.91 528.016 1153C528.016 1149.56 527.312 1147.38 525.906 1146.44C525.344 1146.06 524.547 1145.88 523.516 1145.88C522.516 1145.88 521.359 1146.34 520.047 1147.28C518.734 1148.19 517.422 1149.42 516.109 1150.98C514.797 1152.55 513.531 1154.38 512.312 1156.47C511.094 1158.56 510.016 1160.77 509.078 1163.08ZM580.516 1149.34C578.703 1149.34 575.391 1151.97 570.578 1157.22C566.984 1161.31 564.375 1164.39 562.75 1166.45L558.531 1171.8C556.719 1175.23 555.297 1178.09 554.266 1180.38L551.734 1185.81C551.078 1187.16 550.5 1188.11 550 1188.67C549.531 1189.2 548.875 1189.47 548.031 1189.47C547.219 1189.47 546.422 1189.31 545.641 1189C544.891 1188.72 544.234 1188.34 543.672 1187.88C542.484 1186.88 541.891 1185.78 541.891 1184.59C541.891 1184.12 542.234 1183.2 542.922 1181.83L544.703 1178.03C545.266 1176.91 545.922 1175.47 546.672 1173.72L549.297 1167.3C552.984 1158.08 554.828 1152.12 554.828 1149.44C554.828 1148 554.359 1146.94 553.422 1146.25L552.484 1145.59C552.172 1145.38 552.016 1145 552.016 1144.47C552.016 1143.91 552.219 1143.38 552.625 1142.88C553.062 1142.38 553.625 1141.94 554.312 1141.56C555.719 1140.84 557.125 1140.48 558.531 1140.48C559.969 1140.48 561.094 1140.64 561.906 1140.95C562.719 1141.27 563.422 1141.69 564.016 1142.22C565.203 1143.31 565.797 1144.45 565.797 1145.64C565.797 1146.83 565.641 1148.03 565.328 1149.25C565.016 1150.44 564.625 1151.66 564.156 1152.91C563.688 1154.12 563.188 1155.31 562.656 1156.47C561.406 1159.16 560.625 1160.81 560.312 1161.44C560.031 1162.03 559.953 1162.25 560.078 1162.09C565.797 1154.69 569.234 1150.31 570.391 1148.97C572.797 1146.19 574.672 1144.28 576.016 1143.25C578.484 1141.41 580.812 1140.48 583 1140.48C585.219 1140.48 586.984 1141.17 588.297 1142.55C589.609 1143.92 590.266 1145.73 590.266 1147.98C590.266 1149.95 589.766 1152.27 588.766 1154.92C587.766 1157.58 587.094 1159.44 586.75 1160.5L593.641 1151.41L597.484 1146.81C599.797 1144.22 601.828 1142.52 603.578 1141.7C605.328 1140.89 606.75 1140.48 607.844 1140.48C608.969 1140.48 610.062 1140.69 611.125 1141.09C612.219 1141.5 613.141 1142.08 613.891 1142.83C615.484 1144.36 616.281 1146.39 616.281 1148.92C616.281 1151.36 615.719 1153.86 614.594 1156.42C613.469 1158.98 612.484 1161.09 611.641 1162.75C610.797 1164.38 609.984 1166.02 609.203 1167.67C606.922 1172.64 605.781 1176.33 605.781 1178.73C605.781 1180.42 606.469 1181.27 607.844 1181.27C609.156 1181.27 610.344 1180.98 611.406 1180.42C612.5 1179.86 613.203 1179.58 613.516 1179.58C614.172 1179.58 614.5 1179.91 614.5 1180.56C614.5 1183.34 613.078 1185.67 610.234 1187.55C608.328 1188.83 606.578 1189.47 604.984 1189.47C603.422 1189.47 602.156 1189.28 601.188 1188.91C600.219 1188.53 599.344 1187.94 598.562 1187.12C596.812 1185.31 595.938 1183.05 595.938 1180.33C595.938 1177.61 596.281 1175.11 596.969 1172.83C597.656 1170.55 598.469 1168.34 599.406 1166.22C600.344 1164.06 601.281 1162.09 602.219 1160.31C603.188 1158.5 603.922 1157.06 604.422 1156C605.422 1153.81 605.922 1152.2 605.922 1151.17C605.922 1149.95 605.281 1149.34 604 1149.34C602.312 1149.34 599.281 1152.14 594.906 1157.73C591.594 1162.08 589.297 1165.2 588.016 1167.11L584.781 1171.8C582.969 1175.23 581.578 1178.09 580.609 1180.38L578.219 1185.81C577.625 1187.16 577.109 1188.11 576.672 1188.67C576.234 1189.2 575.625 1189.47 574.844 1189.47C574.062 1189.47 573.297 1189.34 572.547 1189.09C571.828 1188.84 571.203 1188.52 570.672 1188.11C569.453 1187.2 568.844 1186.25 568.844 1185.25C568.844 1184.22 569.172 1182.83 569.828 1181.08C570.516 1179.3 571.359 1177.31 572.359 1175.12L578.922 1161.25C581.266 1156.09 582.438 1152.83 582.438 1151.45C582.438 1150.05 581.797 1149.34 580.516 1149.34ZM585.156 1162.56C585.188 1162.56 585.203 1162.55 585.203 1162.52L585.25 1162.42C585.188 1162.48 585.156 1162.53 585.156 1162.56ZM623.922 1172.59C624.047 1169.88 624.5 1167.28 625.281 1164.81C626.062 1162.31 627.109 1159.91 628.422 1157.59C629.734 1155.25 631.266 1153.05 633.016 1150.98C634.797 1148.89 636.719 1147.06 638.781 1145.5C643.25 1142.16 647.766 1140.48 652.328 1140.48C657.672 1140.48 661.234 1142.69 663.016 1147.09C663.641 1148.59 663.938 1150.38 663.906 1152.44C663.875 1154.47 663.484 1156.36 662.734 1158.11C661.984 1159.83 660.938 1161.41 659.594 1162.84C658.281 1164.25 656.703 1165.52 654.859 1166.64C653.047 1167.77 651.062 1168.72 648.906 1169.5C644.469 1171.06 639.719 1171.88 634.656 1171.94C634.531 1172.38 634.453 1173.03 634.422 1173.91C634.391 1174.78 634.484 1175.77 634.703 1176.86C634.922 1177.92 635.297 1178.88 635.828 1179.72C636.953 1181.59 638.578 1182.53 640.703 1182.53C644.328 1182.53 647.859 1181.47 651.297 1179.34C652.516 1178.62 653.5 1177.89 654.25 1177.14C655.031 1176.36 655.703 1175.97 656.266 1175.97C656.828 1175.97 657.312 1176.31 657.719 1177C658.156 1177.66 658.375 1178.41 658.375 1179.25C658.375 1180.91 657.906 1182.34 656.969 1183.56C653.031 1187.5 647.172 1189.47 639.391 1189.47C634.797 1189.47 631.109 1188.09 628.328 1185.34C625.203 1182.22 623.734 1177.97 623.922 1172.59ZM651.297 1146.72C648.016 1146.72 644.859 1148.97 641.828 1153.47C639.266 1157.34 637.203 1161.94 635.641 1167.25C640.859 1166.72 645.391 1164.66 649.234 1161.06C652.766 1157.69 654.531 1154.45 654.531 1151.36C654.531 1148.27 653.453 1146.72 651.297 1146.72ZM752.031 1124.92C751.125 1125.58 750.062 1126.08 748.844 1126.42C747.656 1126.73 746.047 1126.89 744.016 1126.89C742.016 1126.89 739.406 1126.75 736.188 1126.47C735.438 1128.5 734.672 1130.88 733.891 1133.59L728.5 1151.97C721.844 1173.97 714.75 1186.31 707.219 1189C706.688 1189.22 706 1189.33 705.156 1189.33C704.344 1189.33 703.672 1189.22 703.141 1189C702.641 1188.81 702.219 1188.56 701.875 1188.25C701.188 1187.69 700.844 1187.12 700.844 1186.56C700.844 1186 700.984 1185.62 701.266 1185.44L702.484 1184.69C706.984 1181.75 711.109 1173.94 714.859 1161.25L718.234 1149.81C721.266 1139.53 724.094 1131.45 726.719 1125.58C724.25 1125.36 722.375 1125.25 721.094 1125.25C717.406 1125.25 714.75 1125.77 713.125 1126.8C711.531 1127.83 710.406 1128.95 709.75 1130.17C709.125 1131.36 708.797 1132.19 708.766 1132.66C708.672 1133.53 708.391 1134.09 707.922 1134.34C707.453 1134.56 706.875 1134.67 706.188 1134.67C705.531 1134.67 704.844 1134.44 704.125 1133.97C703.406 1133.47 702.812 1132.84 702.344 1132.09C701.344 1130.56 700.953 1128.84 701.172 1126.94C701.391 1125 702.016 1123.34 703.047 1121.97C704.109 1120.56 705.359 1119.42 706.797 1118.55C709.453 1116.92 712.25 1116.11 715.188 1116.11C718.156 1116.11 720.953 1116.27 723.578 1116.58C726.234 1116.86 728.875 1117.19 731.5 1117.56C738.469 1118.5 742.906 1118.97 744.812 1118.97C746.719 1118.97 748.125 1118.86 749.031 1118.64C749.969 1118.42 750.766 1118.09 751.422 1117.66C752.078 1117.22 752.531 1116.94 752.781 1116.81C753.062 1116.66 753.5 1116.58 754.094 1116.58C755.031 1116.58 755.438 1117.3 755.312 1118.73C755.188 1120.14 754.844 1121.36 754.281 1122.39C753.719 1123.39 752.969 1124.23 752.031 1124.92ZM743.734 1187.88C743.109 1187.41 742.609 1186.89 742.234 1186.33C741.859 1185.73 741.656 1185.23 741.625 1184.83C741.594 1184.39 741.672 1183.88 741.859 1183.28C742.078 1182.66 742.359 1181.91 742.703 1181.03C749.078 1165.34 752.266 1154.81 752.266 1149.44C752.172 1147.94 751.656 1146.88 750.719 1146.25L749.781 1145.59C749.5 1145.38 749.344 1145 749.312 1144.47C749.312 1143.91 749.516 1143.38 749.922 1142.88C750.328 1142.38 750.859 1141.94 751.516 1141.56C752.859 1140.84 754.234 1140.48 755.641 1140.48C757.078 1140.48 758.188 1140.64 758.969 1140.95C759.781 1141.27 760.469 1141.69 761.031 1142.22C762.219 1143.34 762.812 1144.53 762.812 1145.78C762.844 1147.03 762.703 1148.3 762.391 1149.58C762.109 1150.86 761.766 1152.12 761.359 1153.38C760.953 1154.59 760.547 1155.77 760.141 1156.89C759.734 1157.98 759.469 1158.8 759.344 1159.33C759.094 1160.42 759 1161.11 759.062 1161.39C759.812 1160.73 760.266 1160.09 760.422 1159.47L762.25 1156C766.312 1148.69 770.281 1143.84 774.156 1141.47C775.281 1140.81 776.625 1140.48 778.188 1140.48C779.781 1140.48 781.062 1141.05 782.031 1142.17C783 1143.27 783.5 1144.48 783.531 1145.83C783.594 1147.17 783.5 1148.3 783.25 1149.2C783.031 1150.08 782.688 1150.91 782.219 1151.69C781.188 1153.44 779.938 1154.31 778.469 1154.31C778.062 1154.31 777.688 1154.17 777.344 1153.89L776.312 1153C775.281 1152.09 774.281 1151.64 773.312 1151.64C772.375 1151.64 771.219 1152.27 769.844 1153.52C768.5 1154.77 767.094 1156.38 765.625 1158.34C760.688 1164.88 756.656 1172.19 753.531 1180.28L751.469 1185.72C750.938 1187.06 750.469 1188.03 750.062 1188.62C749.656 1189.19 749.047 1189.47 748.234 1189.47C747.453 1189.47 746.656 1189.31 745.844 1189C745.062 1188.72 744.359 1188.34 743.734 1187.88ZM818.922 1176.53C818.922 1179.41 819.938 1180.84 821.969 1180.84C823.375 1180.84 824.531 1180.62 825.438 1180.19C826.375 1179.75 827 1179.53 827.312 1179.53C827.969 1179.53 828.297 1179.88 828.297 1180.56C828.297 1183.25 826.891 1185.56 824.078 1187.5C821.109 1189.53 818.078 1190.03 814.984 1189C812.953 1188.28 811.453 1186.73 810.484 1184.36C810.016 1183.14 809.781 1182.03 809.781 1181.03C809.781 1179.41 809.938 1177.69 810.25 1175.88C807.344 1181.81 803.734 1185.91 799.422 1188.16C797.703 1189.03 795.875 1189.47 793.938 1189.47C792 1189.47 790.312 1189.08 788.875 1188.3C787.469 1187.48 786.266 1186.38 785.266 1184.97C783.234 1182.03 782.312 1178.34 782.5 1173.91C782.688 1168.34 784.328 1162.89 787.422 1157.55C790.266 1152.55 793.859 1148.47 798.203 1145.31C802.547 1142.09 806.609 1140.48 810.391 1140.48C814.172 1140.48 817.219 1142.22 819.531 1145.69C821.688 1142.22 823.594 1140.48 825.25 1140.48C827.031 1140.48 828.375 1140.81 829.281 1141.47C831 1142.72 831.609 1143.81 831.109 1144.75C823.266 1160.81 819.234 1170.81 819.016 1174.75C818.953 1175.31 818.922 1175.91 818.922 1176.53ZM792.906 1176.72C792.906 1180.47 794.109 1182.34 796.516 1182.34C798.359 1182.34 800.625 1180.78 803.312 1177.66C807.25 1173.06 810.734 1166.88 813.766 1159.09C814.734 1156.66 815.547 1154.22 816.203 1151.78C816.078 1149.66 815.188 1148.09 813.531 1147.09C812.969 1146.75 812.125 1146.58 811 1146.58C809.906 1146.58 808.609 1146.98 807.109 1147.8C805.641 1148.61 804.203 1149.72 802.797 1151.12C801.422 1152.53 800.125 1154.2 798.906 1156.14C797.719 1158.05 796.672 1160.12 795.766 1162.38C793.859 1167.19 792.906 1171.97 792.906 1176.72ZM834.953 1184.45C834.484 1183.42 834.25 1182.2 834.25 1180.8C834.25 1179.39 834.469 1177.84 834.906 1176.16C835.344 1174.44 835.906 1172.69 836.594 1170.91C837.281 1169.12 838.047 1167.31 838.891 1165.47L841.281 1160.03C844.375 1152.88 845.516 1148.66 844.703 1147.38C844.328 1146.78 843.609 1146.19 842.547 1145.59C842.203 1145.38 842.031 1145 842.031 1144.47C842.031 1143.91 842.25 1143.38 842.688 1142.88C843.156 1142.38 843.766 1141.94 844.516 1141.56C846.016 1140.84 847.531 1140.48 849.062 1140.48C850.594 1140.48 851.75 1140.66 852.531 1141C853.344 1141.31 854.016 1141.72 854.547 1142.22C855.547 1143.25 856.047 1144.5 856.047 1145.97C856.047 1147.44 855.766 1149.09 855.203 1150.94C854.641 1152.78 853.938 1154.72 853.094 1156.75C852.25 1158.78 851.328 1160.86 850.328 1162.98L847.562 1169.12C845.594 1173.66 844.609 1176.66 844.609 1178.12C844.609 1181 845.625 1182.44 847.656 1182.44C852.875 1182.44 857.766 1179.34 862.328 1173.16C864.984 1169.56 866.891 1165.66 868.047 1161.44C868.578 1159.44 868.844 1157.62 868.844 1156C868.844 1154.34 868.781 1152.97 868.656 1151.88C868.562 1150.78 868.391 1149.81 868.141 1148.97C867.734 1147.47 867.047 1146.17 866.078 1145.08C865.422 1144.27 865.719 1143.31 866.969 1142.22C868.344 1141.06 870.297 1140.48 872.828 1140.48C874.391 1140.48 875.766 1141.22 876.953 1142.69C878.453 1144.44 879.203 1146.95 879.203 1150.23C879.203 1153.48 878.719 1156.69 877.75 1159.84C876.781 1162.97 875.453 1165.98 873.766 1168.89C872.078 1171.77 870.078 1174.45 867.766 1176.95C865.484 1179.45 863.016 1181.62 860.359 1183.47C854.672 1187.47 848.984 1189.47 843.297 1189.47C839.203 1189.47 836.422 1187.8 834.953 1184.45ZM884.266 1172.59C884.391 1169.88 884.844 1167.28 885.625 1164.81C886.406 1162.31 887.453 1159.91 888.766 1157.59C890.078 1155.25 891.609 1153.05 893.359 1150.98C895.141 1148.89 897.062 1147.06 899.125 1145.5C903.594 1142.16 908.109 1140.48 912.672 1140.48C918.016 1140.48 921.578 1142.69 923.359 1147.09C923.984 1148.59 924.281 1150.38 924.25 1152.44C924.219 1154.47 923.828 1156.36 923.078 1158.11C922.328 1159.83 921.281 1161.41 919.938 1162.84C918.625 1164.25 917.047 1165.52 915.203 1166.64C913.391 1167.77 911.406 1168.72 909.25 1169.5C904.812 1171.06 900.062 1171.88 895 1171.94C894.875 1172.38 894.797 1173.03 894.766 1173.91C894.734 1174.78 894.828 1175.77 895.047 1176.86C895.266 1177.92 895.641 1178.88 896.172 1179.72C897.297 1181.59 898.922 1182.53 901.047 1182.53C904.672 1182.53 908.203 1181.47 911.641 1179.34C912.859 1178.62 913.844 1177.89 914.594 1177.14C915.375 1176.36 916.047 1175.97 916.609 1175.97C917.172 1175.97 917.656 1176.31 918.062 1177C918.5 1177.66 918.719 1178.41 918.719 1179.25C918.719 1180.91 918.25 1182.34 917.312 1183.56C913.375 1187.5 907.516 1189.47 899.734 1189.47C895.141 1189.47 891.453 1188.09 888.672 1185.34C885.547 1182.22 884.078 1177.97 884.266 1172.59ZM911.641 1146.72C908.359 1146.72 905.203 1148.97 902.172 1153.47C899.609 1157.34 897.547 1161.94 895.984 1167.25C901.203 1166.72 905.734 1164.66 909.578 1161.06C913.109 1157.69 914.875 1154.45 914.875 1151.36C914.875 1148.27 913.797 1146.72 911.641 1146.72ZM931.375 1187.12C930.594 1186.31 929.953 1185.28 929.453 1184.03C928.984 1182.75 928.75 1181.28 928.75 1179.62C928.75 1177.94 929.125 1175.69 929.875 1172.88C930.656 1170.06 931.641 1166.86 932.828 1163.27L936.766 1151.59C942.359 1135.34 945.594 1122.78 946.469 1113.91C946.75 1111.28 948.031 1109.97 950.312 1109.97C951.75 1109.97 952.938 1110.31 953.875 1111C955.688 1112.38 956.562 1113.91 956.5 1115.59C956.438 1117.28 956.141 1119.34 955.609 1121.78C955.078 1124.19 954.391 1126.83 953.547 1129.7C952.703 1132.55 951.734 1135.56 950.641 1138.75L944.172 1157.78C940.453 1168.59 938.594 1175.58 938.594 1178.73C938.594 1180.42 939.281 1181.27 940.656 1181.27C941.969 1181.27 943.156 1180.98 944.219 1180.42C945.312 1179.86 946.016 1179.58 946.328 1179.58C946.984 1179.58 947.312 1179.91 947.312 1180.56C947.312 1183.34 945.891 1185.67 943.047 1187.55C941.141 1188.83 939.391 1189.47 937.797 1189.47C936.234 1189.47 934.969 1189.28 934 1188.91C933.031 1188.53 932.156 1187.94 931.375 1187.12ZM958.188 1187.12C957.406 1186.31 956.766 1185.28 956.266 1184.03C955.797 1182.75 955.562 1181.28 955.562 1179.62C955.562 1177.94 955.938 1175.69 956.688 1172.88C957.469 1170.06 958.453 1166.86 959.641 1163.27L963.578 1151.59C969.172 1135.34 972.406 1122.78 973.281 1113.91C973.562 1111.28 974.844 1109.97 977.125 1109.97C978.562 1109.97 979.75 1110.31 980.688 1111C982.5 1112.38 983.375 1113.91 983.312 1115.59C983.25 1117.28 982.953 1119.34 982.422 1121.78C981.891 1124.19 981.203 1126.83 980.359 1129.7C979.516 1132.55 978.547 1135.56 977.453 1138.75L970.984 1157.78C967.266 1168.59 965.406 1175.58 965.406 1178.73C965.406 1180.42 966.094 1181.27 967.469 1181.27C968.781 1181.27 969.969 1180.98 971.031 1180.42C972.125 1179.86 972.828 1179.58 973.141 1179.58C973.797 1179.58 974.125 1179.91 974.125 1180.56C974.125 1183.34 972.703 1185.67 969.859 1187.55C967.953 1188.83 966.203 1189.47 964.609 1189.47C963.047 1189.47 961.781 1189.28 960.812 1188.91C959.844 1188.53 958.969 1187.94 958.188 1187.12ZM983.172 1172.59C983.297 1169.88 983.75 1167.28 984.531 1164.81C985.312 1162.31 986.359 1159.91 987.672 1157.59C988.984 1155.25 990.516 1153.05 992.266 1150.98C994.047 1148.89 995.969 1147.06 998.031 1145.5C1002.5 1142.16 1007.02 1140.48 1011.58 1140.48C1016.92 1140.48 1020.48 1142.69 1022.27 1147.09C1022.89 1148.59 1023.19 1150.38 1023.16 1152.44C1023.12 1154.47 1022.73 1156.36 1021.98 1158.11C1021.23 1159.83 1020.19 1161.41 1018.84 1162.84C1017.53 1164.25 1015.95 1165.52 1014.11 1166.64C1012.3 1167.77 1010.31 1168.72 1008.16 1169.5C1003.72 1171.06 998.969 1171.88 993.906 1171.94C993.781 1172.38 993.703 1173.03 993.672 1173.91C993.641 1174.78 993.734 1175.77 993.953 1176.86C994.172 1177.92 994.547 1178.88 995.078 1179.72C996.203 1181.59 997.828 1182.53 999.953 1182.53C1003.58 1182.53 1007.11 1181.47 1010.55 1179.34C1011.77 1178.62 1012.75 1177.89 1013.5 1177.14C1014.28 1176.36 1014.95 1175.97 1015.52 1175.97C1016.08 1175.97 1016.56 1176.31 1016.97 1177C1017.41 1177.66 1017.62 1178.41 1017.62 1179.25C1017.62 1180.91 1017.16 1182.34 1016.22 1183.56C1012.28 1187.5 1006.42 1189.47 998.641 1189.47C994.047 1189.47 990.359 1188.09 987.578 1185.34C984.453 1182.22 982.984 1177.97 983.172 1172.59ZM1010.55 1146.72C1007.27 1146.72 1004.11 1148.97 1001.08 1153.47C998.516 1157.34 996.453 1161.94 994.891 1167.25C1000.11 1166.72 1004.64 1164.66 1008.48 1161.06C1012.02 1157.69 1013.78 1154.45 1013.78 1151.36C1013.78 1148.27 1012.7 1146.72 1010.55 1146.72ZM1028.17 1187.88C1027.55 1187.41 1027.05 1186.89 1026.67 1186.33C1026.3 1185.73 1026.09 1185.23 1026.06 1184.83C1026.03 1184.39 1026.11 1183.88 1026.3 1183.28C1026.52 1182.66 1026.8 1181.91 1027.14 1181.03C1033.52 1165.34 1036.7 1154.81 1036.7 1149.44C1036.61 1147.94 1036.09 1146.88 1035.16 1146.25L1034.22 1145.59C1033.94 1145.38 1033.78 1145 1033.75 1144.47C1033.75 1143.91 1033.95 1143.38 1034.36 1142.88C1034.77 1142.38 1035.3 1141.94 1035.95 1141.56C1037.3 1140.84 1038.67 1140.48 1040.08 1140.48C1041.52 1140.48 1042.62 1140.64 1043.41 1140.95C1044.22 1141.27 1044.91 1141.69 1045.47 1142.22C1046.66 1143.34 1047.25 1144.53 1047.25 1145.78C1047.28 1147.03 1047.14 1148.3 1046.83 1149.58C1046.55 1150.86 1046.2 1152.12 1045.8 1153.38C1045.39 1154.59 1044.98 1155.77 1044.58 1156.89C1044.17 1157.98 1043.91 1158.8 1043.78 1159.33C1043.53 1160.42 1043.44 1161.11 1043.5 1161.39C1044.25 1160.73 1044.7 1160.09 1044.86 1159.47L1046.69 1156C1050.75 1148.69 1054.72 1143.84 1058.59 1141.47C1059.72 1140.81 1061.06 1140.48 1062.62 1140.48C1064.22 1140.48 1065.5 1141.05 1066.47 1142.17C1067.44 1143.27 1067.94 1144.48 1067.97 1145.83C1068.03 1147.17 1067.94 1148.3 1067.69 1149.2C1067.47 1150.08 1067.12 1150.91 1066.66 1151.69C1065.62 1153.44 1064.38 1154.31 1062.91 1154.31C1062.5 1154.31 1062.12 1154.17 1061.78 1153.89L1060.75 1153C1059.72 1152.09 1058.72 1151.64 1057.75 1151.64C1056.81 1151.64 1055.66 1152.27 1054.28 1153.52C1052.94 1154.77 1051.53 1156.38 1050.06 1158.34C1045.12 1164.88 1041.09 1172.19 1037.97 1180.28L1035.91 1185.72C1035.38 1187.06 1034.91 1188.03 1034.5 1188.62C1034.09 1189.19 1033.48 1189.47 1032.67 1189.47C1031.89 1189.47 1031.09 1189.31 1030.28 1189C1029.5 1188.72 1028.8 1188.34 1028.17 1187.88Z" fill="white"/>
<path id="Vector 15" d="M107 1237H1242.8" stroke="url(#paint0_linear_310_86)" stroke-width="9" stroke-linecap="round"/>
<path id="Check out some of my work!" d="M273.063 1449.11C271.189 1448.2 269.702 1447 268.602 1445.5C267.51 1443.96 266.723 1442.25 266.242 1440.35C265.76 1438.45 265.556 1436.41 265.63 1434.22C265.704 1432.04 265.99 1429.85 266.489 1427.65C266.994 1425.41 267.685 1423.2 268.56 1421.03C269.442 1418.81 270.423 1416.76 271.504 1414.87C272.632 1412.95 273.807 1411.24 275.03 1409.76C276.301 1408.24 277.585 1407.02 278.882 1406.1C280.131 1405.21 281.245 1404.75 282.225 1404.7C283.204 1404.66 284.053 1404.88 284.771 1405.39C285.496 1405.85 286.097 1406.54 286.575 1407.47C287.052 1408.39 287.392 1409.38 287.595 1410.43C287.805 1411.43 287.864 1412.46 287.772 1413.5C287.729 1414.51 287.521 1415.36 287.149 1416.06C286.819 1416.76 286.331 1417.27 285.687 1417.58C285.09 1417.86 284.343 1417.78 283.447 1417.33C283.086 1416.72 283.057 1416.02 283.36 1415.23C283.704 1414.44 284.028 1413.65 284.332 1412.85C284.683 1412.03 284.86 1411.23 284.862 1410.47C284.911 1409.68 284.458 1408.99 283.5 1408.4C282.542 1407.82 281.56 1407.76 280.552 1408.22C279.543 1408.68 278.534 1409.53 277.524 1410.75C276.563 1411.94 275.614 1413.43 274.678 1415.21C273.79 1416.97 272.963 1418.85 272.198 1420.88C271.439 1422.86 270.777 1424.91 270.21 1427.01C269.684 1429.12 269.261 1431.12 268.941 1433.01C268.67 1434.86 268.556 1436.53 268.6 1438.02C268.645 1439.51 268.895 1440.65 269.352 1441.44C270.041 1442.62 270.83 1443.57 271.719 1444.32C272.648 1445.07 273.647 1445.66 274.715 1446.09C275.782 1446.53 276.912 1446.84 278.103 1447.04C279.335 1447.25 280.575 1447.42 281.821 1447.55C283.273 1447.71 284.643 1447.6 285.932 1447.23C287.228 1446.81 288.493 1446.33 289.727 1445.78C290.961 1445.23 292.172 1444.69 293.358 1444.17C294.551 1443.62 295.792 1443.28 297.08 1443.16C298.677 1442.96 299.512 1443.14 299.586 1443.71C299.708 1444.23 299.258 1444.9 298.235 1445.7C297.253 1446.5 295.82 1447.36 293.934 1448.27C292.096 1449.14 290.015 1449.82 287.692 1450.32C285.368 1450.81 282.926 1451.01 280.364 1450.91C277.844 1450.83 275.41 1450.22 273.063 1449.11ZM326.187 1456.57C327.726 1448.98 328.437 1442.78 328.319 1437.98C328.248 1433.15 327.623 1429.6 326.444 1427.33C325.306 1425.07 323.794 1424.01 321.91 1424.16C320.026 1424.3 318.047 1425.51 315.973 1427.78C313.946 1430.01 311.966 1433.23 310.03 1437.42C308.136 1441.62 306.607 1446.67 305.441 1452.56C305.194 1453.02 304.905 1453.23 304.577 1453.17C304.255 1453.08 303.954 1452.86 303.674 1452.51C303.394 1452.17 303.166 1451.77 302.989 1451.32C302.819 1450.82 302.761 1450.41 302.817 1450.09C302.845 1449.92 302.931 1449.53 303.077 1448.92C303.263 1448.32 303.436 1447.68 303.595 1446.98C303.796 1446.3 303.969 1445.65 304.114 1445.04C304.259 1444.43 304.346 1444.05 304.374 1443.88C304.436 1443.51 304.533 1442.94 304.666 1442.16C304.846 1441.34 305.023 1440.42 305.196 1439.39C305.37 1438.37 305.551 1437.3 305.739 1436.19C305.933 1435.04 306.114 1433.97 306.281 1432.99C306.455 1431.96 306.59 1431.03 306.688 1430.2C306.827 1429.38 306.932 1428.76 307.001 1428.35C307.036 1428.15 307.088 1427.71 307.158 1427.05C307.236 1426.34 307.316 1425.62 307.4 1424.87C307.491 1424.08 307.555 1423.33 307.591 1422.62C307.675 1421.88 307.724 1421.33 307.738 1421C307.773 1420.79 307.792 1420.31 307.793 1419.55C307.843 1418.76 307.88 1417.92 307.902 1417.03C307.973 1416.12 308.03 1415.28 308.073 1414.53C308.123 1413.73 308.145 1413.23 308.138 1413.02C308.238 1411.68 308.53 1410.95 309.017 1410.82C309.511 1410.65 310.071 1411.21 310.698 1412.5C310.457 1415.92 310.12 1419.29 309.687 1422.6C309.261 1425.86 308.972 1429.19 308.82 1432.59C309.398 1431.42 310.069 1430.2 310.832 1428.94C311.644 1427.64 312.524 1426.44 313.472 1425.33C314.461 1424.23 315.549 1423.29 316.736 1422.52C317.964 1421.76 319.287 1421.3 320.705 1421.16C322.603 1420.94 324.175 1421.14 325.42 1421.77C326.665 1422.4 327.649 1423.33 328.372 1424.55C329.143 1425.74 329.684 1427.16 329.995 1428.82C330.306 1430.48 330.494 1432.24 330.558 1434.11C330.622 1435.98 330.572 1437.9 330.41 1439.86C330.255 1441.78 330.093 1443.61 329.924 1445.35C329.755 1447.1 329.59 1448.7 329.429 1450.15C329.275 1451.56 329.207 1452.71 329.225 1453.6C329.237 1454.28 329.479 1454.72 329.952 1454.93C330.431 1455.1 330.865 1455.27 331.255 1455.47C331.652 1455.62 331.84 1455.88 331.818 1456.26C331.845 1456.6 331.395 1457.27 330.467 1458.25C330.11 1458.61 329.647 1458.85 329.079 1458.97C328.551 1459.09 328.02 1459.1 327.486 1459.01C327 1458.89 326.6 1458.63 326.286 1458.24C326.019 1457.81 325.987 1457.26 326.187 1456.57ZM345.214 1461.76C343.764 1460.84 342.715 1459.79 342.067 1458.63C341.46 1457.47 341.076 1456.24 340.915 1454.95C340.754 1453.65 340.75 1452.3 340.904 1450.89C341.059 1449.48 341.196 1448.04 341.316 1446.58C340.343 1446.59 339.405 1446.51 338.501 1446.36C337.604 1446.17 336.817 1445.95 336.139 1445.71C335.51 1445.43 335.072 1445.15 334.826 1444.85C334.587 1444.52 334.595 1444.22 334.849 1443.97C335.151 1443.68 335.782 1443.45 336.741 1443.27C337.701 1443.1 339.088 1443.02 340.903 1443.03C341.15 1443.07 341.52 1443.01 342.013 1442.84C342.548 1442.67 342.867 1442.54 342.97 1442.43C343.327 1442.06 343.712 1441.41 344.126 1440.47C344.546 1439.48 344.984 1438.39 345.439 1437.2C345.935 1436.02 346.472 1434.84 347.05 1433.67C347.676 1432.47 348.354 1431.46 349.082 1430.66C349.851 1429.86 350.678 1429.34 351.562 1429.11C352.487 1428.89 353.521 1429.15 354.663 1429.89C354.772 1429.99 354.909 1430.18 355.073 1430.47C355.284 1430.71 355.493 1430.98 355.697 1431.27C355.902 1431.56 356.086 1431.84 356.25 1432.12C356.462 1432.37 356.598 1432.56 356.66 1432.7C356.483 1434.74 356.072 1436.42 355.424 1437.75C354.777 1439.08 354.021 1440.18 353.156 1441.04C352.298 1441.87 351.381 1442.54 350.407 1443.05C349.434 1443.56 348.504 1444.06 347.619 1444.54C346.741 1444.99 345.963 1445.47 345.283 1445.99C344.645 1446.51 344.229 1447.22 344.035 1448.12C343.772 1449.18 343.564 1450.15 343.411 1451.06C343.265 1451.92 343.229 1452.76 343.302 1453.58C343.375 1454.39 343.6 1455.19 343.974 1455.97C344.349 1456.75 344.953 1457.55 345.787 1458.37C346.402 1458.98 347.244 1459.25 348.313 1459.18C349.382 1459.1 350.502 1458.85 351.675 1458.42C352.847 1457.98 354.013 1457.46 355.172 1456.85C356.331 1456.24 357.326 1455.74 358.155 1455.33C358.992 1454.88 359.589 1454.6 359.945 1454.49C360.302 1454.38 360.26 1454.63 359.82 1455.23C359.016 1456.49 358.108 1457.73 357.098 1458.95C356.088 1460.18 354.969 1461.17 353.741 1461.93C352.513 1462.7 351.177 1463.11 349.731 1463.16C348.32 1463.26 346.814 1462.79 345.214 1461.76ZM347.027 1439.06C346.951 1439.25 346.799 1439.65 346.572 1440.25C346.344 1440.84 346.213 1441.24 346.178 1441.45C346.212 1441.5 346.27 1441.53 346.353 1441.54C346.476 1441.56 346.561 1441.56 346.61 1441.52C346.747 1441.46 346.952 1441.37 347.227 1441.25C347.508 1441.08 347.786 1440.94 348.06 1440.82C348.341 1440.65 348.599 1440.51 348.832 1440.38C349.113 1440.21 349.302 1440.1 349.398 1440.03C350.839 1439 351.893 1438.02 352.559 1437.08C353.274 1436.1 353.687 1435.28 353.798 1434.62C353.91 1433.97 353.757 1433.5 353.34 1433.21C352.97 1432.9 352.446 1432.87 351.768 1433.14C351.13 1433.41 350.392 1434.03 349.554 1434.98C348.723 1435.9 347.88 1437.26 347.027 1439.06ZM367.656 1465.11C366.727 1464.11 365.933 1462.69 365.273 1460.84C364.654 1459.01 364.21 1457.01 363.941 1454.85C363.68 1452.65 363.617 1450.4 363.753 1448.1C363.888 1445.8 364.226 1443.68 364.765 1441.74C365.311 1439.76 366.079 1438.1 367.068 1436.74C368.106 1435.35 369.372 1434.49 370.866 1434.15C372.093 1433.89 373.062 1434.16 373.772 1434.96C374.531 1435.72 375.087 1436.68 375.44 1437.84C375.8 1438.96 375.969 1440.09 375.945 1441.22C375.963 1442.37 375.824 1443.19 375.528 1443.69C375.239 1444.15 374.822 1444.12 374.275 1443.6C373.776 1443.05 373.187 1441.67 372.508 1439.44C372.216 1438.42 371.775 1438.02 371.185 1438.26C370.643 1438.47 370.049 1439.11 369.403 1440.18C368.797 1441.26 368.201 1442.66 367.615 1444.38C367.076 1446.06 366.627 1447.84 366.266 1449.73C365.946 1451.62 365.777 1453.49 365.759 1455.35C365.789 1457.17 366.065 1458.78 366.589 1460.18C367.12 1461.54 367.96 1462.57 369.11 1463.27C370.307 1463.93 371.892 1464.05 373.866 1463.63C374.263 1463.53 374.946 1463.11 375.914 1462.39C376.881 1461.67 377.928 1460.85 379.054 1459.94C380.22 1459.04 381.36 1458.18 382.471 1457.35C383.583 1456.52 384.478 1455.98 385.157 1455.71C385.877 1455.45 386.277 1455.59 386.358 1456.11C386.446 1456.59 386.022 1457.72 385.086 1459.5C384.391 1460.87 383.322 1462.19 381.881 1463.46C380.487 1464.71 378.947 1465.69 377.26 1466.42C375.621 1467.12 373.946 1467.4 372.234 1467.28C370.514 1467.2 368.989 1466.48 367.656 1465.11ZM388.435 1468.18C390.444 1461.81 391.782 1455.4 392.448 1448.96C393.156 1442.53 393.035 1436 392.086 1429.37C391.971 1428.81 392.047 1428.35 392.315 1428.02C392.583 1427.68 392.905 1427.53 393.282 1427.55C393.666 1427.53 394.015 1427.72 394.329 1428.11C394.65 1428.46 394.847 1429.04 394.92 1429.85C394.925 1433.32 394.824 1436.79 394.617 1440.26C394.458 1443.7 394.333 1447.19 394.242 1450.72C395.13 1451.72 396.167 1452.08 397.353 1451.82C398.58 1451.56 399.869 1450.93 401.221 1449.94C402.573 1448.94 403.922 1447.71 405.268 1446.25C406.662 1444.75 407.964 1443.3 409.173 1441.9C410.423 1440.51 411.522 1439.26 412.47 1438.15C413.459 1437.05 414.228 1436.38 414.777 1436.13C415.792 1435.63 416.251 1435.66 416.153 1436.24C416.063 1436.77 415.605 1437.6 414.781 1438.73C413.956 1439.86 412.887 1441.18 411.575 1442.69C410.27 1444.16 408.907 1445.6 407.485 1447C406.112 1448.38 404.787 1449.59 403.51 1450.64C402.275 1451.7 401.314 1452.38 400.628 1452.69C400.532 1452.76 400.351 1452.83 400.083 1452.91C399.857 1453 399.607 1453.11 399.332 1453.23C399.058 1453.35 398.784 1453.48 398.509 1453.6C398.242 1453.68 398.064 1453.73 397.975 1453.76L397.891 1454.25C397.884 1454.3 398.007 1454.44 398.26 1454.7C398.52 1454.91 398.814 1455.17 399.142 1455.48C399.511 1455.8 399.88 1456.11 400.249 1456.43C400.618 1456.74 400.912 1457.01 401.131 1457.21C401.842 1457.75 402.693 1458.47 403.684 1459.36C404.716 1460.25 405.803 1461.19 406.945 1462.19C408.134 1463.15 409.348 1464.1 410.585 1465.02C411.864 1465.96 413.143 1466.77 414.422 1467.45C415.701 1468.13 416.93 1468.61 418.107 1468.89C419.326 1469.19 420.429 1469.16 421.416 1468.82C422.444 1468.49 423.347 1467.77 424.124 1466.68C424.9 1465.59 425.486 1463.99 425.882 1461.91L427.115 1462.12C427.32 1462.15 427.436 1462.47 427.462 1463.06C427.488 1463.66 427.407 1464.38 427.22 1465.24C427.081 1466.06 426.805 1466.94 426.391 1467.89C425.985 1468.79 425.425 1469.6 424.711 1470.33C424.003 1471.01 423.115 1471.52 422.046 1471.84C421.017 1472.18 419.795 1472.16 418.378 1471.79C416.392 1471.29 414.384 1470.42 412.353 1469.19C410.321 1467.96 408.335 1466.59 406.393 1465.07C404.458 1463.52 402.596 1461.92 400.805 1460.26C399.055 1458.61 397.446 1457.14 395.976 1455.83C395.867 1455.73 395.593 1455.6 395.155 1455.44C394.765 1455.25 394.533 1455.12 394.458 1455.07L394.026 1455C393.37 1457.38 392.805 1459.84 392.333 1462.38C391.909 1464.88 391.235 1467.24 390.312 1469.45C390.264 1469.49 390.113 1469.5 389.86 1469.5C389.606 1469.5 389.336 1469.48 389.048 1469.43C388.809 1469.35 388.6 1469.21 388.423 1469.01C388.286 1468.81 388.29 1468.54 388.435 1468.18ZM458.725 1480.97C457.687 1479.86 456.97 1478.72 456.576 1477.56C456.188 1476.35 455.993 1475.14 455.989 1473.91C456.033 1472.65 456.245 1471.4 456.625 1470.15C457.053 1468.87 457.563 1467.6 458.155 1466.35C458.541 1465.57 458.933 1464.63 459.333 1463.51C459.775 1462.4 460.257 1461.3 460.78 1460.2C461.31 1459.07 461.885 1458.05 462.504 1457.14C463.129 1456.19 463.819 1455.48 464.574 1455.01C465.047 1454.71 465.627 1454.54 466.312 1454.48C467.004 1454.39 467.699 1454.4 468.398 1454.52C469.103 1454.6 469.781 1454.71 470.431 1454.86C471.082 1455.02 471.609 1455.15 472.013 1455.26C473.799 1455.69 475.092 1456.54 475.89 1457.82C476.695 1459.05 477.127 1460.5 477.184 1462.16C477.242 1463.81 476.981 1465.61 476.4 1467.54C475.861 1469.48 475.079 1471.35 474.054 1473.16C473.077 1474.94 471.933 1476.59 470.621 1478.1C469.308 1479.61 467.946 1480.79 466.533 1481.65C465.167 1482.48 463.79 1482.88 462.399 1482.85C461.05 1482.84 459.825 1482.21 458.725 1480.97ZM460.223 1477.73C461.111 1478.73 462.189 1479.1 463.457 1478.85C464.725 1478.6 465.997 1477.95 467.274 1476.9C468.592 1475.85 469.828 1474.54 470.983 1472.96C472.144 1471.34 473.056 1469.7 473.718 1468.04C474.386 1466.33 474.722 1464.72 474.726 1463.2C474.737 1461.64 474.271 1460.4 473.328 1459.48C471.981 1458.19 470.596 1457.64 469.17 1457.82C467.752 1457.96 466.425 1458.56 465.189 1459.62C463.961 1460.64 462.844 1461.99 461.84 1463.68C460.877 1465.38 460.14 1467.11 459.628 1468.88C459.117 1470.66 458.873 1472.35 458.897 1473.96C458.961 1475.57 459.403 1476.83 460.223 1477.73ZM506.731 1489.09C505.793 1488.63 504.976 1487.97 504.28 1487.09C503.59 1486.17 503.004 1485.14 502.52 1484C502.043 1482.82 501.659 1481.6 501.368 1480.32C501.084 1479 500.837 1477.72 500.627 1476.45C500.466 1475.16 500.332 1473.95 500.225 1472.84C500.119 1471.72 500.028 1470.75 499.955 1469.94L499.462 1469.86C498.788 1470.84 497.809 1472.01 496.525 1473.35C495.289 1474.66 493.936 1475.91 492.468 1477.1C490.999 1478.29 489.479 1479.28 487.908 1480.07C486.379 1480.87 484.981 1481.27 483.713 1481.26C482.453 1481.22 481.406 1480.66 480.573 1479.59C479.747 1478.48 479.324 1476.61 479.303 1473.99C479.758 1470.05 480.271 1466.14 480.842 1462.27C481.413 1458.39 482.07 1454.51 482.813 1450.62C482.964 1450.48 483.204 1450.31 483.533 1450.11C483.904 1449.92 484.26 1449.81 484.603 1449.78C484.945 1449.76 485.222 1449.87 485.434 1450.11C485.694 1450.33 485.761 1450.8 485.636 1451.54L482.185 1471.94C482.122 1472.31 482.09 1472.75 482.089 1473.25C482.129 1473.77 482.21 1474.29 482.332 1474.82C482.502 1475.31 482.696 1475.79 482.914 1476.25C483.139 1476.67 483.422 1476.99 483.764 1477.21C485.139 1478.08 486.474 1478.31 487.77 1477.89C489.073 1477.44 490.314 1476.59 491.496 1475.35C492.718 1474.12 493.879 1472.63 494.98 1470.87C496.128 1469.08 497.187 1467.32 498.157 1465.58C499.128 1463.84 500.012 1462.24 500.81 1460.77C501.656 1459.26 502.412 1458.16 503.079 1457.47C503.154 1457.53 503.219 1457.64 503.273 1457.82C503.375 1457.97 503.444 1458.06 503.478 1458.11C503.573 1458.3 503.764 1458.67 504.05 1459.22C504.344 1459.74 504.517 1460.08 504.572 1460.26C504.447 1461 504.273 1462.03 504.05 1463.34C503.876 1464.62 503.718 1466.05 503.578 1467.64C503.444 1469.18 503.357 1470.81 503.319 1472.54C503.287 1474.22 503.348 1475.86 503.502 1477.45C503.697 1479.04 504.018 1480.52 504.467 1481.86C504.964 1483.17 505.629 1484.23 506.463 1485.05C507.345 1485.83 508.426 1486.31 509.706 1486.49C511.035 1486.63 512.652 1486.31 514.559 1485.53C515.512 1485.14 516.109 1484.74 516.349 1484.31C516.59 1483.89 516.728 1483.45 516.764 1482.99C516.806 1482.49 516.848 1481.99 516.891 1481.49C516.974 1481 517.362 1480.45 518.056 1479.85C519.138 1479.69 519.898 1479.95 520.335 1480.61C520.772 1481.28 520.924 1482.13 520.791 1483.16C520.699 1484.2 520.303 1485.3 519.601 1486.45C518.948 1487.56 518.01 1488.48 516.789 1489.2C515.609 1489.93 514.163 1490.37 512.45 1490.5C510.785 1490.6 508.879 1490.13 506.731 1489.09ZM525.711 1492.3C525.843 1491.52 526.041 1490.47 526.304 1489.17C526.609 1487.87 526.914 1486.44 527.219 1484.88C527.524 1483.33 527.816 1481.73 528.094 1480.09C528.372 1478.44 528.591 1476.9 528.753 1475.45C528.914 1473.99 528.982 1472.72 528.957 1471.61C528.974 1470.52 528.849 1469.76 528.583 1469.33C525.96 1469.1 523.991 1468.74 522.677 1468.27C521.363 1467.79 520.72 1467.35 520.749 1466.93C520.818 1466.52 521.59 1466.2 523.063 1465.99C524.543 1465.73 526.759 1465.75 529.711 1466.04C529.794 1465.54 529.94 1464.68 530.149 1463.45C530.405 1462.18 530.652 1460.85 530.888 1459.45C531.124 1458.06 531.326 1456.74 531.494 1455.5C531.702 1454.27 531.848 1453.4 531.932 1452.91C531.939 1452.62 531.944 1452.21 531.945 1451.71C531.946 1451.2 531.951 1450.67 531.959 1450.13C531.974 1449.54 532.006 1448.97 532.056 1448.43C532.112 1447.85 532.212 1447.38 532.357 1447.02C532.523 1446.54 532.784 1446.25 533.14 1446.14C533.545 1446 533.928 1445.98 534.291 1446.08C534.661 1446.15 534.969 1446.32 535.215 1446.62C535.508 1446.88 535.624 1447.2 535.562 1447.57L532.444 1465.99C532.374 1466.4 532.853 1466.69 533.88 1466.87C534.914 1467 536.185 1467.11 537.692 1467.2C539.198 1467.28 540.767 1467.38 542.397 1467.49C544.075 1467.56 545.482 1467.73 546.618 1468.01C547.796 1468.29 548.548 1468.72 548.876 1469.28C549.21 1469.8 548.828 1470.56 547.73 1471.56C547.634 1471.63 547.452 1471.7 547.185 1471.78C546.917 1471.86 546.742 1471.9 546.66 1471.88C544.456 1471.43 542.117 1471.01 539.646 1470.63C537.174 1470.26 534.801 1470.05 532.527 1470C531.766 1470 531.237 1470.63 530.94 1471.89C530.69 1473.11 530.535 1474.65 530.476 1476.5C530.458 1478.35 530.439 1480.34 530.42 1482.45C530.45 1484.52 530.363 1486.41 530.16 1488.11C529.957 1489.81 529.539 1491.15 528.907 1492.14C528.322 1493.1 527.393 1493.34 526.12 1492.88C526.038 1492.86 525.946 1492.78 525.843 1492.64C525.741 1492.49 525.697 1492.38 525.711 1492.3ZM587.446 1503.57C587.111 1503.3 586.639 1502.97 586.03 1502.57C585.47 1502.14 584.875 1501.65 584.246 1501.13C583.617 1500.6 583.012 1500.05 582.431 1499.49C581.899 1498.89 581.472 1498.29 581.151 1497.69C580.838 1497.04 580.713 1496.41 580.776 1495.78C580.839 1495.16 581.173 1494.56 581.777 1493.99C581.873 1493.92 582.102 1494.19 582.463 1494.8C582.873 1495.38 583.385 1496.1 583.999 1496.96C584.621 1497.79 585.338 1498.67 586.151 1499.61C586.97 1500.51 587.839 1501.25 588.755 1501.83C589.678 1502.36 590.644 1502.65 591.65 1502.7C592.664 1502.7 593.672 1502.23 594.675 1501.31C595.08 1500.91 595.393 1500.43 595.613 1499.88C595.882 1499.29 596.048 1498.69 596.111 1498.06C596.174 1497.44 596.172 1496.83 596.105 1496.22C596.086 1495.59 595.995 1495 595.832 1494.47C595.493 1493.22 594.849 1491.91 593.9 1490.53C592.992 1489.15 591.985 1487.73 590.879 1486.27C589.814 1484.83 588.773 1483.36 587.756 1481.88C586.739 1480.4 585.993 1478.94 585.517 1477.51C585.041 1476.07 584.914 1474.7 585.136 1473.39C585.407 1472.04 586.256 1470.76 587.684 1469.57C588.809 1468.66 590.071 1468.33 591.467 1468.56C592.905 1468.8 594.25 1469.35 595.501 1470.19C596.794 1471.05 597.87 1472.05 598.731 1473.21C599.639 1474.34 600.14 1475.37 600.233 1476.32C600.294 1476.71 600.266 1477.13 600.148 1477.57C600.037 1477.98 599.855 1478.31 599.601 1478.56C599.347 1478.81 599.004 1478.96 598.572 1479.02C598.189 1479.04 597.71 1478.87 597.135 1478.52C596.478 1478.16 596.014 1477.53 595.742 1476.64C595.512 1475.75 595.236 1474.88 594.917 1474.03C594.645 1473.13 594.198 1472.4 593.576 1471.83C593.002 1471.23 592.023 1471.02 590.639 1471.21C589.076 1471.45 588.147 1472.08 587.85 1473.08C587.56 1474.05 587.653 1475.25 588.129 1476.68C588.653 1478.08 589.409 1479.6 590.398 1481.25C591.436 1482.86 592.483 1484.41 593.541 1485.9C594.64 1487.4 595.617 1488.74 596.47 1489.95C597.33 1491.11 597.845 1491.93 598.015 1492.43C598.348 1493.45 598.578 1494.72 598.705 1496.22C598.879 1497.69 598.79 1499.09 598.438 1500.42C598.085 1501.76 597.431 1502.87 596.477 1503.77C595.53 1504.62 594.121 1504.95 592.252 1504.76C591.998 1504.76 591.645 1504.72 591.194 1504.65C590.776 1504.62 590.341 1504.57 589.889 1504.49C589.437 1504.41 588.972 1504.29 588.492 1504.13C588.054 1503.97 587.706 1503.78 587.446 1503.57ZM604.466 1505.62C603.428 1504.52 602.711 1503.38 602.317 1502.22C601.93 1501.01 601.734 1499.8 601.73 1498.57C601.774 1497.31 601.986 1496.06 602.366 1494.81C602.794 1493.53 603.304 1492.26 603.896 1491.01C604.282 1490.23 604.674 1489.28 605.074 1488.17C605.516 1487.06 605.998 1485.96 606.521 1484.86C607.051 1483.73 607.626 1482.71 608.245 1481.8C608.87 1480.85 609.56 1480.14 610.315 1479.67C610.788 1479.37 611.368 1479.2 612.053 1479.14C612.745 1479.05 613.44 1479.06 614.139 1479.18C614.844 1479.26 615.522 1479.37 616.172 1479.52C616.823 1479.68 617.35 1479.81 617.754 1479.92C619.54 1480.35 620.833 1481.2 621.631 1482.48C622.436 1483.71 622.868 1485.16 622.925 1486.82C622.983 1488.47 622.722 1490.27 622.142 1492.2C621.602 1494.13 620.82 1496.01 619.795 1497.82C618.818 1499.6 617.674 1501.25 616.362 1502.76C615.05 1504.27 613.687 1505.45 612.274 1506.31C610.908 1507.14 609.531 1507.54 608.14 1507.51C606.791 1507.5 605.566 1506.87 604.466 1505.62ZM605.964 1502.39C606.852 1503.39 607.93 1503.76 609.198 1503.51C610.466 1503.26 611.738 1502.61 613.015 1501.56C614.333 1500.51 615.569 1499.2 616.724 1497.62C617.885 1496 618.797 1494.36 619.459 1492.69C620.127 1490.99 620.463 1489.38 620.467 1487.86C620.478 1486.3 620.012 1485.05 619.069 1484.13C617.722 1482.85 616.337 1482.3 614.911 1482.48C613.493 1482.62 612.166 1483.22 610.931 1484.28C609.702 1485.3 608.585 1486.65 607.581 1488.34C606.618 1490.04 605.881 1491.77 605.369 1493.54C604.858 1495.32 604.614 1497.01 604.638 1498.62C604.702 1500.23 605.144 1501.49 605.964 1502.39ZM664.192 1515.29C664.13 1515.15 664.059 1514.95 663.977 1514.68C663.896 1514.41 663.835 1514.15 663.794 1513.89C663.761 1513.59 663.72 1513.33 663.673 1513.11C663.625 1512.89 663.609 1512.74 663.623 1512.65C663.747 1512.17 663.937 1511.42 664.193 1510.41C664.49 1509.4 664.788 1508.27 665.085 1507.01C665.424 1505.75 665.756 1504.42 666.082 1502.99C666.448 1501.57 666.739 1500.23 666.955 1498.96C667.177 1497.64 667.317 1496.44 667.374 1495.35C667.473 1494.27 667.427 1493.42 667.237 1492.79C666.945 1491.77 666.385 1490.96 665.558 1490.35C664.772 1489.75 663.872 1489.33 662.859 1489.07C660.552 1488.47 658.531 1488.55 656.796 1489.31C655.102 1490.08 653.616 1491.25 652.338 1492.81C651.067 1494.32 649.967 1496.08 649.037 1498.08C648.149 1500.08 647.336 1502.02 646.598 1503.88C645.909 1505.71 645.257 1507.31 644.644 1508.68C644.079 1510.02 643.498 1510.83 642.902 1511.11C642.442 1511.33 642.076 1511.38 641.802 1511.24C641.569 1511.12 641.375 1510.9 641.218 1510.58C641.109 1510.22 641.025 1509.85 640.964 1509.45C640.91 1509.02 640.891 1508.64 640.905 1508.3C641.203 1506.79 641.619 1504.96 642.152 1502.81C642.725 1500.67 643.248 1498.45 643.719 1496.17C644.191 1493.88 644.542 1491.68 644.774 1489.56C645.053 1487.41 645.047 1485.57 644.756 1484.04C644.432 1482.21 643.948 1481.08 643.306 1480.63C642.663 1480.18 641.916 1480.22 641.065 1480.76C640.215 1481.29 639.298 1482.21 638.315 1483.52C637.373 1484.84 636.421 1486.35 635.458 1488.05C634.495 1489.74 633.559 1491.53 632.65 1493.41C631.741 1495.28 630.911 1497.06 630.16 1498.75C629.458 1500.41 628.855 1501.85 628.352 1503.07C627.849 1504.3 627.542 1505.11 627.431 1505.52C627.169 1506.32 626.767 1506.69 626.226 1506.64C625.685 1506.59 625.203 1506.32 624.779 1505.83C624.356 1505.33 624.101 1504.72 624.013 1503.99C623.967 1503.26 624.284 1502.64 624.963 1502.12C625.123 1501.43 625.324 1500.36 625.567 1498.93C625.81 1497.49 626.064 1495.86 626.329 1494.05C626.594 1492.23 626.876 1490.32 627.176 1488.3C627.516 1486.28 627.843 1484.35 628.156 1482.5C628.469 1480.65 628.771 1478.99 629.062 1477.52C629.401 1476.02 629.702 1474.86 629.964 1474.06C630.13 1473.58 630.36 1473.35 630.655 1473.35C630.956 1473.32 631.257 1473.41 631.558 1473.63C631.859 1473.85 632.105 1474.15 632.296 1474.52C632.528 1474.9 632.66 1475.24 632.694 1475.54C632.76 1476.39 632.744 1477.24 632.647 1478.06C632.597 1478.86 632.523 1479.67 632.425 1480.5C632.334 1481.29 632.239 1482.09 632.141 1482.92C632.05 1483.71 632.038 1484.53 632.104 1485.39C632.606 1484.67 633.259 1483.81 634.063 1482.8C634.867 1481.8 635.746 1480.85 636.701 1479.95C637.655 1479.06 638.629 1478.3 639.624 1477.66C640.66 1477.03 641.623 1476.71 642.514 1476.69C643.446 1476.68 644.267 1477.07 644.977 1477.87C645.694 1478.62 646.253 1479.94 646.652 1481.83C646.76 1482.44 646.82 1483.21 646.832 1484.14C646.891 1485.04 646.944 1485.98 646.989 1486.96C647.035 1487.94 647.125 1488.9 647.259 1489.86C647.401 1490.77 647.615 1491.5 647.901 1492.06C648.669 1491.76 649.359 1491.31 649.97 1490.69C650.622 1490.09 651.257 1489.45 651.875 1488.8C652.542 1488.11 653.221 1487.46 653.915 1486.86C654.649 1486.27 655.506 1485.82 656.487 1485.52C659.701 1485.01 662.259 1485.12 664.161 1485.87C666.105 1486.62 667.558 1487.77 668.52 1489.33C669.489 1490.85 670.049 1492.65 670.202 1494.75C670.402 1496.81 670.342 1498.92 670.022 1501.06C669.742 1503.21 669.285 1505.29 668.65 1507.29C668.022 1509.26 667.388 1510.88 666.747 1512.17L667.095 1512.73C667.266 1512.98 667.763 1512.91 668.586 1512.54C669.45 1512.18 670.386 1511.77 671.394 1511.31C672.402 1510.84 673.358 1510.44 674.264 1510.08C675.176 1509.69 675.785 1509.58 676.093 1509.76L675.926 1510.74C675.549 1510.97 675.062 1511.36 674.465 1511.89C673.915 1512.39 673.277 1512.91 672.55 1513.47C671.863 1514.03 671.115 1514.58 670.306 1515.12C669.544 1515.62 668.783 1516 668.022 1516.25C667.302 1516.51 666.593 1516.58 665.894 1516.46C665.237 1516.35 664.669 1515.96 664.192 1515.29ZM689.323 1519.98C687.873 1519.06 686.824 1518.02 686.176 1516.85C685.569 1515.69 685.185 1514.46 685.024 1513.17C684.863 1511.87 684.859 1510.52 685.014 1509.11C685.168 1507.7 685.305 1506.27 685.425 1504.81C684.452 1504.81 683.514 1504.74 682.61 1504.58C681.713 1504.39 680.926 1504.17 680.248 1503.93C679.619 1503.66 679.181 1503.37 678.935 1503.07C678.696 1502.74 678.704 1502.44 678.958 1502.19C679.26 1501.9 679.891 1501.67 680.85 1501.5C681.81 1501.32 683.197 1501.24 685.012 1501.25C685.259 1501.29 685.629 1501.23 686.123 1501.06C686.657 1500.89 686.976 1500.76 687.079 1500.65C687.436 1500.29 687.821 1499.63 688.235 1498.69C688.655 1497.7 689.093 1496.62 689.548 1495.43C690.044 1494.24 690.581 1493.06 691.159 1491.89C691.786 1490.69 692.463 1489.69 693.191 1488.88C693.96 1488.08 694.787 1487.56 695.671 1487.33C696.596 1487.11 697.63 1487.37 698.772 1488.11C698.881 1488.21 699.018 1488.41 699.182 1488.69C699.393 1488.94 699.602 1489.2 699.806 1489.49C700.011 1489.78 700.195 1490.06 700.359 1490.35C700.571 1490.59 700.707 1490.78 700.769 1490.92C700.592 1492.96 700.181 1494.65 699.534 1495.97C698.886 1497.3 698.13 1498.4 697.265 1499.27C696.407 1500.09 695.491 1500.76 694.517 1501.27C693.543 1501.79 692.613 1502.28 691.728 1502.77C690.851 1503.21 690.072 1503.69 689.392 1504.21C688.754 1504.74 688.338 1505.45 688.144 1506.34C687.881 1507.4 687.673 1508.38 687.52 1509.28C687.374 1510.14 687.338 1510.98 687.411 1511.8C687.485 1512.61 687.709 1513.41 688.084 1514.19C688.458 1514.98 689.063 1515.78 689.896 1516.59C690.511 1517.2 691.353 1517.47 692.422 1517.4C693.491 1517.33 694.611 1517.07 695.784 1516.64C696.956 1516.2 698.122 1515.68 699.281 1515.07C700.44 1514.47 701.435 1513.96 702.265 1513.55C703.101 1513.1 703.698 1512.82 704.054 1512.71C704.411 1512.6 704.369 1512.85 703.929 1513.45C703.125 1514.71 702.218 1515.95 701.208 1517.18C700.198 1518.4 699.079 1519.39 697.851 1520.16C696.623 1520.92 695.286 1521.33 693.84 1521.38C692.429 1521.48 690.923 1521.01 689.323 1519.98ZM691.136 1497.28C691.06 1497.48 690.908 1497.87 690.681 1498.47C690.453 1499.07 690.322 1499.47 690.287 1499.67C690.321 1499.72 690.38 1499.75 690.462 1499.76C690.585 1499.78 690.671 1499.78 690.719 1499.74C690.856 1499.68 691.062 1499.59 691.336 1499.47C691.617 1499.3 691.895 1499.16 692.169 1499.04C692.45 1498.87 692.708 1498.73 692.941 1498.6C693.222 1498.43 693.411 1498.32 693.507 1498.25C694.948 1497.23 696.002 1496.24 696.669 1495.3C697.383 1494.32 697.796 1493.5 697.908 1492.85C698.019 1492.19 697.866 1491.72 697.449 1491.44C697.08 1491.12 696.556 1491.1 695.877 1491.36C695.239 1491.63 694.501 1492.25 693.663 1493.21C692.832 1494.12 691.99 1495.48 691.136 1497.28ZM739.855 1528.53C738.816 1527.43 738.1 1526.29 737.705 1525.13C737.318 1523.92 737.122 1522.7 737.118 1521.48C737.162 1520.22 737.374 1518.96 737.754 1517.72C738.182 1516.44 738.692 1515.17 739.284 1513.92C739.67 1513.14 740.063 1512.19 740.463 1511.08C740.904 1509.97 741.386 1508.87 741.909 1507.77C742.44 1506.64 743.014 1505.61 743.633 1504.7C744.258 1503.75 744.949 1503.05 745.703 1502.58C746.177 1502.28 746.756 1502.1 747.441 1502.05C748.133 1501.96 748.828 1501.97 749.527 1502.09C750.232 1502.16 750.91 1502.28 751.56 1502.43C752.211 1502.58 752.738 1502.72 753.142 1502.83C754.929 1503.26 756.221 1504.11 757.019 1505.38C757.825 1506.62 758.256 1508.07 758.314 1509.72C758.371 1511.38 758.11 1513.17 757.53 1515.11C756.991 1517.04 756.209 1518.92 755.183 1520.73C754.206 1522.51 753.062 1524.15 751.75 1525.66C750.438 1527.17 749.075 1528.36 747.662 1529.22C746.297 1530.04 744.919 1530.45 743.528 1530.42C742.179 1530.4 740.954 1529.77 739.855 1528.53ZM741.352 1525.3C742.24 1526.29 743.318 1526.67 744.586 1526.42C745.854 1526.17 747.126 1525.52 748.403 1524.46C749.721 1523.42 750.957 1522.11 752.112 1520.53C753.273 1518.91 754.185 1517.26 754.847 1515.6C755.515 1513.9 755.852 1512.29 755.855 1510.76C755.866 1509.2 755.4 1507.96 754.457 1507.04C753.111 1505.76 751.725 1505.21 750.3 1505.39C748.881 1505.53 747.554 1506.13 746.319 1507.19C745.09 1508.2 743.974 1509.56 742.969 1511.25C742.006 1512.94 741.269 1514.68 740.758 1516.45C740.246 1518.22 740.003 1519.92 740.026 1521.52C740.09 1523.14 740.533 1524.4 741.352 1525.3ZM768.923 1515.96C767.999 1515.67 766.92 1515.55 765.687 1515.6C764.461 1515.6 763.368 1515.69 762.409 1515.87C761.97 1515.96 761.576 1515.79 761.228 1515.35C760.921 1514.92 760.727 1514.44 760.646 1513.92C760.572 1513.36 760.635 1512.86 760.835 1512.43C761.034 1512 761.449 1511.8 762.079 1511.82C762.244 1511.85 762.692 1511.94 763.425 1512.11C764.157 1512.28 764.934 1512.43 765.756 1512.57C766.626 1512.67 767.42 1512.72 768.139 1512.72C768.907 1512.68 769.383 1512.48 769.569 1512.13C769.82 1510.4 770.071 1508.54 770.323 1506.56C770.574 1504.57 770.87 1502.57 771.211 1500.56C771.558 1498.5 771.981 1496.51 772.479 1494.56C773.025 1492.58 773.68 1490.71 774.445 1488.94C774.913 1487.92 775.449 1487.25 776.053 1486.93C776.698 1486.61 777.612 1486.7 778.796 1487.2C779.747 1487.57 780.687 1488.26 781.616 1489.26C782.552 1490.22 783.382 1491.31 784.105 1492.53C784.869 1493.76 785.476 1495.05 785.924 1496.39C786.421 1497.7 786.641 1498.9 786.584 1499.99C786.555 1500.41 786.308 1500.75 785.841 1501.01C785.416 1501.27 784.96 1501.34 784.474 1501.22C783.988 1501.09 783.568 1500.71 783.213 1500.05C782.907 1499.37 782.875 1498.31 783.118 1496.87C783.132 1496.79 783.095 1496.63 783.006 1496.41C782.925 1496.14 782.85 1495.96 782.782 1495.86L779.147 1490.75C778.381 1490.28 777.733 1490.23 777.205 1490.61C776.725 1490.95 776.323 1491.45 775.999 1492.11C775.676 1492.78 775.407 1493.49 775.192 1494.26C775.019 1495.03 774.877 1495.62 774.767 1496.03C774.379 1497.57 774.016 1498.96 773.678 1500.22C773.38 1501.48 773.106 1502.72 772.857 1503.94C772.648 1505.18 772.477 1506.44 772.344 1507.72C772.211 1509.01 772.115 1510.45 772.056 1512.05C772.213 1512.12 772.816 1512.05 773.865 1511.85C774.961 1511.61 776.226 1511.38 777.658 1511.16C779.138 1510.9 780.652 1510.69 782.201 1510.53C783.749 1510.37 785.061 1510.36 786.136 1510.5C787.253 1510.65 787.995 1511.01 788.363 1511.57C788.78 1512.11 788.548 1512.98 787.669 1514.18C787.346 1514.59 786.938 1514.76 786.445 1514.67C785.959 1514.55 785.538 1514.41 785.182 1514.27C784.88 1514.3 784.359 1514.38 783.619 1514.51C782.886 1514.6 782.105 1514.72 781.276 1514.88C780.495 1515 779.734 1515.12 778.994 1515.25C778.261 1515.34 777.764 1515.4 777.503 1515.44C777.373 1515.46 777.096 1515.48 776.671 1515.49C776.287 1515.51 775.859 1515.54 775.386 1515.59C774.955 1515.64 774.527 1515.68 774.102 1515.69C773.718 1515.71 773.482 1515.73 773.393 1515.76C773.263 1515.78 773.112 1515.8 772.94 1515.81C772.817 1515.79 772.666 1515.81 772.488 1515.86C772.31 1515.92 772.115 1515.95 771.902 1515.95L768.941 1533.45C768.886 1533.78 768.686 1533.96 768.344 1533.99C768.042 1534.02 767.717 1533.94 767.368 1533.76C767.054 1533.62 766.753 1533.4 766.466 1533.1C766.227 1532.76 766.142 1532.39 766.212 1531.98L768.923 1515.96ZM860.279 1548.46C860.218 1548.33 860.147 1548.12 860.065 1547.86C859.984 1547.59 859.923 1547.33 859.882 1547.07C859.849 1546.76 859.808 1546.5 859.761 1546.28C859.713 1546.07 859.697 1545.91 859.711 1545.83C859.835 1545.35 860.025 1544.6 860.281 1543.58C860.578 1542.58 860.876 1541.44 861.173 1540.18C861.512 1538.93 861.844 1537.59 862.17 1536.17C862.536 1534.75 862.827 1533.41 863.043 1532.13C863.265 1530.82 863.405 1529.62 863.462 1528.53C863.561 1527.45 863.515 1526.59 863.325 1525.97C863.033 1524.95 862.473 1524.13 861.646 1523.53C860.86 1522.93 859.96 1522.51 858.947 1522.25C856.64 1521.65 854.619 1521.73 852.884 1522.49C851.19 1523.26 849.704 1524.43 848.426 1525.98C847.155 1527.5 846.055 1529.26 845.125 1531.26C844.237 1533.26 843.424 1535.2 842.686 1537.06C841.997 1538.88 841.345 1540.49 840.732 1541.86C840.167 1543.2 839.586 1544.01 838.99 1544.29C838.53 1544.51 838.164 1544.55 837.89 1544.42C837.657 1544.3 837.463 1544.08 837.306 1543.75C837.197 1543.4 837.113 1543.02 837.052 1542.63C836.998 1542.2 836.979 1541.82 836.993 1541.48C837.291 1539.97 837.707 1538.14 838.24 1535.99C838.813 1533.84 839.336 1531.63 839.807 1529.34C840.279 1527.06 840.63 1524.86 840.862 1522.74C841.141 1520.59 841.135 1518.75 840.844 1517.22C840.52 1515.39 840.036 1514.25 839.394 1513.81C838.751 1513.36 838.004 1513.4 837.153 1513.93C836.303 1514.47 835.386 1515.39 834.403 1516.7C833.461 1518.02 832.509 1519.53 831.546 1521.23C830.583 1522.92 829.647 1524.71 828.738 1526.58C827.829 1528.46 826.999 1530.24 826.248 1531.93C825.546 1533.59 824.943 1535.03 824.44 1536.25C823.937 1537.48 823.63 1538.29 823.519 1538.69C823.257 1539.5 822.855 1539.87 822.314 1539.82C821.773 1539.77 821.291 1539.5 820.867 1539.01C820.444 1538.51 820.189 1537.9 820.101 1537.17C820.055 1536.44 820.372 1535.82 821.051 1535.3C821.211 1534.61 821.412 1533.54 821.655 1532.1C821.898 1530.67 822.152 1529.04 822.417 1527.22C822.682 1525.41 822.964 1523.49 823.264 1521.47C823.604 1519.46 823.931 1517.53 824.244 1515.68C824.557 1513.83 824.859 1512.17 825.15 1510.7C825.489 1509.19 825.79 1508.04 826.052 1507.24C826.218 1506.76 826.448 1506.52 826.743 1506.53C827.044 1506.5 827.345 1506.59 827.646 1506.81C827.947 1507.03 828.193 1507.33 828.384 1507.7C828.616 1508.07 828.748 1508.41 828.782 1508.71C828.848 1509.57 828.832 1510.41 828.735 1511.24C828.685 1512.04 828.611 1512.85 828.513 1513.68C828.422 1514.46 828.327 1515.27 828.229 1516.1C828.138 1516.89 828.126 1517.71 828.192 1518.57C828.694 1517.85 829.347 1516.99 830.151 1515.98C830.955 1514.98 831.834 1514.03 832.788 1513.13C833.743 1512.24 834.717 1511.47 835.712 1510.84C836.748 1510.21 837.711 1509.89 838.602 1509.87C839.534 1509.86 840.355 1510.25 841.065 1511.05C841.782 1511.8 842.341 1513.12 842.74 1515.01C842.848 1515.62 842.908 1516.39 842.92 1517.32C842.979 1518.22 843.032 1519.16 843.077 1520.13C843.123 1521.11 843.213 1522.08 843.347 1523.03C843.489 1523.94 843.703 1524.68 843.989 1525.23C844.757 1524.94 845.447 1524.49 846.058 1523.87C846.71 1523.26 847.345 1522.63 847.963 1521.98C848.63 1521.29 849.309 1520.64 850.003 1520.04C850.737 1519.44 851.594 1519 852.575 1518.7C855.789 1518.19 858.347 1518.3 860.249 1519.05C862.193 1519.8 863.646 1520.95 864.608 1522.51C865.576 1524.03 866.137 1525.83 866.29 1527.93C866.49 1529.99 866.43 1532.09 866.11 1534.24C865.83 1536.39 865.373 1538.47 864.738 1540.47C864.11 1542.44 863.476 1544.06 862.835 1545.35L863.183 1545.91C863.354 1546.15 863.851 1546.09 864.674 1545.72C865.538 1545.36 866.474 1544.95 867.482 1544.48C868.49 1544.02 869.446 1543.61 870.352 1543.26C871.264 1542.86 871.873 1542.76 872.181 1542.93L872.014 1543.92C871.637 1544.15 871.15 1544.54 870.553 1545.07C870.003 1545.57 869.365 1546.09 868.638 1546.65C867.951 1547.21 867.203 1547.76 866.394 1548.29C865.632 1548.8 864.871 1549.18 864.11 1549.43C863.39 1549.69 862.681 1549.76 861.982 1549.64C861.325 1549.53 860.757 1549.14 860.279 1548.46ZM881.822 1591.98C880.543 1591.05 879.821 1589.44 879.655 1587.18C879.531 1584.92 879.797 1582.34 880.455 1579.45C881.113 1576.56 882.086 1573.56 883.375 1570.44C884.705 1567.32 886.205 1564.45 887.876 1561.82C889.588 1559.19 891.395 1557 893.297 1555.25C895.233 1553.55 897.143 1552.63 899.027 1552.48C899.11 1552.25 899.217 1551.86 899.348 1551.33C899.487 1550.77 899.628 1550.18 899.774 1549.57C899.919 1548.96 900.057 1548.39 900.189 1547.86C900.327 1547.3 900.417 1546.89 900.459 1546.64C900.653 1545.74 900.868 1544.6 901.105 1543.2C901.348 1541.76 901.581 1540.39 901.803 1539.07C902.033 1537.72 902.227 1536.57 902.387 1535.62C902.554 1534.64 902.62 1534.12 902.586 1534.07L902.228 1533.57C901.802 1534.09 900.978 1534.96 899.755 1536.19C898.533 1537.42 897.105 1538.74 895.471 1540.16C893.837 1541.57 892.06 1542.96 890.138 1544.32C888.224 1545.65 886.334 1546.7 884.469 1547.49C882.611 1548.23 880.867 1548.55 879.237 1548.44C877.614 1548.29 876.256 1547.45 875.164 1545.91C874.611 1545.18 874.319 1544.16 874.288 1542.85C874.305 1541.5 874.445 1540.04 874.71 1538.48C875.022 1536.89 875.427 1535.24 875.924 1533.55C876.469 1531.83 877.018 1530.21 877.57 1528.7C878.128 1527.14 878.635 1525.77 879.09 1524.58C879.593 1523.36 879.958 1522.44 880.186 1521.85C880.475 1521.39 880.835 1521.14 881.267 1521.08C881.746 1520.99 882.181 1521.05 882.571 1521.24C882.968 1521.39 883.259 1521.67 883.443 1522.08C883.675 1522.46 883.687 1522.89 883.481 1523.36C882.737 1525.01 882.044 1526.6 881.404 1528.14C880.804 1529.69 880.245 1531.24 879.727 1532.8C879.251 1534.37 878.833 1535.97 878.472 1537.6C878.153 1539.23 877.902 1540.97 877.72 1542.79C878.354 1544.04 879.277 1544.71 880.489 1544.78C881.708 1544.82 883.069 1544.52 884.571 1543.89C886.079 1543.22 887.654 1542.28 889.294 1541.08C890.934 1539.87 892.475 1538.63 893.916 1537.36C895.358 1536.08 896.618 1534.88 897.696 1533.75C898.822 1532.59 899.622 1531.73 900.096 1531.18C900.57 1530.62 900.976 1529.97 901.314 1529.23C901.692 1528.49 902.067 1527.77 902.439 1527.07C902.859 1526.34 903.292 1525.65 903.739 1525.01C904.227 1524.37 904.793 1523.9 905.438 1523.59L907.025 1525.82L902.75 1551.09C902.948 1551.16 903.424 1551.22 904.178 1551.26C904.972 1551.31 905.657 1551.39 906.232 1551.49C906.807 1551.58 907.115 1551.76 907.155 1552.02C907.244 1552.25 906.678 1552.6 905.457 1553.07C904.827 1553.3 904.192 1553.55 903.555 1553.82C902.965 1554.06 902.341 1554.25 901.683 1554.39C900.723 1557.82 899.856 1560.82 899.082 1563.4C898.302 1566.01 897.501 1568.5 896.68 1570.85C895.859 1573.2 894.945 1575.61 893.939 1578.06C892.933 1580.51 891.721 1583.3 890.302 1586.44C889.848 1587.13 889.332 1587.93 888.755 1588.84C888.211 1589.81 887.586 1590.63 886.879 1591.31C886.205 1592.05 885.451 1592.51 884.615 1592.71C883.772 1592.94 882.841 1592.7 881.822 1591.98ZM884.451 1588.43C884.813 1588.79 885.396 1588.34 886.201 1587.08C887.005 1585.82 887.89 1584.09 888.854 1581.89C889.853 1579.73 890.855 1577.3 891.862 1574.6C892.91 1571.9 893.858 1569.3 894.707 1566.78C895.597 1564.26 896.332 1562.04 896.912 1560.11C897.492 1558.18 897.817 1556.89 897.887 1556.22C895.767 1557.51 893.832 1559.09 892.081 1560.94C890.322 1562.84 888.79 1564.91 887.483 1567.14C886.21 1569.42 885.197 1571.78 884.444 1574.23C883.685 1576.72 883.22 1579.22 883.049 1581.73C883.028 1582.11 883.009 1582.59 882.994 1583.18C883.013 1583.81 883.015 1584.43 883 1585.02C883.026 1585.61 883.045 1586.12 883.058 1586.55C883.07 1586.97 883.094 1587.21 883.128 1587.26L884.451 1588.43ZM978.155 1568.85C976.159 1567.16 974.636 1565.3 973.586 1563.26C972.536 1561.22 971.689 1559.12 971.043 1556.94C970.398 1554.76 969.804 1552.52 969.262 1550.23C968.719 1547.94 967.958 1545.7 966.977 1543.51C966.888 1543.28 966.724 1543.25 966.484 1543.42C965.412 1544.76 964.449 1546.21 963.596 1547.75C962.791 1549.26 961.982 1550.8 961.17 1552.35C960.358 1553.9 959.488 1555.42 958.559 1556.92C957.672 1558.41 956.658 1559.78 955.518 1561.03C955.01 1561.53 954.307 1561.94 953.409 1562.26C952.552 1562.58 951.75 1562.69 951.003 1562.61C950.305 1562.49 949.796 1562.13 949.475 1561.53C949.162 1560.88 949.325 1559.92 949.965 1558.63C949.377 1555.36 948.929 1552.26 948.622 1549.34C948.321 1546.37 947.968 1543.33 947.565 1540.22C947.444 1539.44 947.216 1538.54 946.883 1537.51C946.557 1536.44 946.313 1535.38 946.151 1534.34C945.99 1533.3 946.006 1532.33 946.2 1531.43C946.401 1530.5 946.964 1529.79 947.89 1529.31C948.26 1529.12 948.632 1529.67 949.006 1530.96C949.379 1532.25 949.752 1533.92 950.124 1535.96C950.495 1538.01 950.829 1540.29 951.124 1542.79C951.426 1545.25 951.708 1547.58 951.97 1549.78C952.232 1551.98 952.443 1553.85 952.604 1555.4C952.805 1556.96 952.95 1557.85 953.039 1558.07C953.999 1557.64 954.939 1556.83 955.86 1555.64C956.781 1554.44 957.668 1553.07 958.521 1551.52C959.422 1549.94 960.269 1548.31 961.061 1546.63C961.901 1544.91 962.692 1543.35 963.436 1541.96C964.186 1540.52 964.891 1539.35 965.551 1538.45C966.217 1537.5 966.825 1537.04 967.373 1537.05C967.962 1537.06 968.498 1537.64 968.982 1538.78C969.465 1539.91 969.902 1541.83 970.293 1544.51C970.825 1548.36 971.716 1552.08 972.968 1555.68C974.267 1559.24 976.188 1562.5 978.729 1565.46C979.617 1566.2 980.415 1566.23 981.122 1565.55C981.83 1564.87 982.439 1563.77 982.949 1562.25C983.467 1560.69 983.862 1558.85 984.134 1556.74C984.454 1554.6 984.662 1552.5 984.756 1550.45C984.898 1548.36 984.923 1546.46 984.832 1544.75C984.788 1543.01 984.623 1541.74 984.337 1540.93C984.031 1540.24 983.731 1539.77 983.437 1539.51C983.15 1539.21 982.962 1538.94 982.874 1538.72C982.792 1538.45 982.865 1538.15 983.092 1537.8C983.367 1537.43 983.913 1536.82 984.73 1535.99C985.56 1535.58 986.23 1535.86 986.742 1536.84C987.294 1537.82 987.691 1539.22 987.933 1541.03C988.217 1542.85 988.345 1544.97 988.319 1547.37C988.333 1549.78 988.197 1552.21 987.91 1554.66C987.623 1557.1 987.207 1559.44 986.66 1561.67C986.12 1563.86 985.431 1565.69 984.591 1567.15C983.8 1568.58 982.859 1569.52 981.769 1569.97C980.686 1570.38 979.481 1570.01 978.155 1568.85ZM992.698 1571.31C991.66 1570.21 990.943 1569.07 990.549 1567.91C990.162 1566.7 989.966 1565.48 989.962 1564.26C990.006 1563 990.218 1561.74 990.598 1560.5C991.026 1559.22 991.536 1557.95 992.128 1556.7C992.514 1555.92 992.906 1554.97 993.306 1553.86C993.748 1552.75 994.23 1551.65 994.753 1550.55C995.283 1549.42 995.858 1548.39 996.477 1547.48C997.102 1546.53 997.792 1545.83 998.547 1545.36C999.02 1545.06 999.6 1544.89 1000.28 1544.83C1000.98 1544.74 1001.67 1544.75 1002.37 1544.87C1003.08 1544.95 1003.75 1545.06 1004.4 1545.21C1005.05 1545.36 1005.58 1545.5 1005.99 1545.61C1007.77 1546.04 1009.06 1546.89 1009.86 1548.16C1010.67 1549.4 1011.1 1550.85 1011.16 1552.5C1011.22 1554.16 1010.95 1555.96 1010.37 1557.89C1009.83 1559.82 1009.05 1561.7 1008.03 1563.51C1007.05 1565.29 1005.91 1566.93 1004.59 1568.44C1003.28 1569.96 1001.92 1571.14 1000.51 1572C999.14 1572.83 997.763 1573.23 996.372 1573.2C995.023 1573.19 993.798 1572.56 992.698 1571.31ZM994.196 1568.08C995.084 1569.08 996.162 1569.45 997.43 1569.2C998.698 1568.95 999.97 1568.3 1001.25 1567.24C1002.56 1566.2 1003.8 1564.89 1004.96 1563.31C1006.12 1561.69 1007.03 1560.05 1007.69 1558.38C1008.36 1556.68 1008.7 1555.07 1008.7 1553.55C1008.71 1551.98 1008.24 1550.74 1007.3 1549.82C1005.95 1548.54 1004.57 1547.99 1003.14 1548.17C1001.73 1548.31 1000.4 1548.91 999.163 1549.97C997.934 1550.98 996.817 1552.34 995.813 1554.03C994.85 1555.72 994.113 1557.46 993.602 1559.23C993.09 1561 992.846 1562.7 992.87 1564.31C992.934 1565.92 993.376 1567.18 994.196 1568.08ZM1030.49 1576.5C1029 1575.28 1027.87 1574.12 1027.08 1573.01C1026.35 1571.87 1025.64 1570.78 1024.98 1569.74C1024.31 1568.65 1023.52 1567.61 1022.59 1566.61C1021.67 1565.57 1020.32 1564.55 1018.54 1563.58C1018.11 1564.35 1017.72 1565.28 1017.37 1566.36C1017.02 1567.44 1016.68 1568.55 1016.37 1569.68C1016.1 1570.77 1015.83 1571.83 1015.58 1572.84C1015.37 1573.82 1015.18 1574.57 1015.01 1575.09C1014.36 1575.65 1013.8 1575.86 1013.32 1575.69C1012.84 1575.52 1012.43 1575.2 1012.09 1574.72C1011.8 1574.21 1011.55 1573.64 1011.36 1573.01C1011.22 1572.36 1011.16 1571.86 1011.17 1571.52C1012.49 1569.46 1013.51 1567.33 1014.22 1565.13C1014.97 1562.93 1015.53 1560.64 1015.89 1558.25C1016.29 1555.87 1016.59 1553.38 1016.77 1550.79C1016.96 1548.2 1017.2 1545.5 1017.51 1542.68C1017.77 1542.38 1018.08 1542.16 1018.45 1542.01C1018.85 1541.87 1019.25 1541.91 1019.63 1542.15C1020.27 1541.62 1021.08 1541.06 1022.07 1540.47C1023.06 1539.83 1024.11 1539.29 1025.2 1538.84C1026.33 1538.36 1027.47 1538 1028.61 1537.77C1029.79 1537.55 1030.84 1537.56 1031.77 1537.8C1032.71 1538 1033.47 1538.49 1034.06 1539.26C1034.69 1540.05 1035.04 1541.21 1035.12 1542.74C1035.09 1544.93 1034.69 1546.91 1033.93 1548.69C1033.16 1550.46 1032.12 1552.1 1030.81 1553.61C1029.55 1555.09 1028.03 1556.44 1026.26 1557.66C1024.5 1558.84 1022.58 1559.95 1020.5 1560.99C1020.33 1561.22 1020.33 1561.47 1020.5 1561.75C1020.71 1562 1020.96 1562.25 1021.25 1562.52C1021.6 1562.74 1021.94 1562.95 1022.29 1563.14C1022.64 1563.32 1022.89 1563.45 1023.05 1563.52C1023.77 1564.23 1024.55 1565.16 1025.36 1566.32C1026.19 1567.43 1027.05 1568.59 1027.95 1569.8C1028.89 1570.97 1029.84 1572.06 1030.81 1573.07C1031.83 1574.09 1032.86 1574.81 1033.93 1575.25C1035.01 1575.64 1036.1 1575.66 1037.22 1575.3C1038.38 1574.94 1039.58 1573.98 1040.81 1572.42L1041.8 1572.58C1041.76 1573.84 1041.36 1574.96 1040.6 1575.93C1039.89 1576.87 1038.98 1577.54 1037.85 1577.94C1036.77 1578.35 1035.57 1578.46 1034.24 1578.28C1032.92 1578.1 1031.67 1577.51 1030.49 1576.5ZM1019.68 1553.82C1019.7 1553.99 1019.68 1554.31 1019.65 1554.76C1019.62 1555.18 1019.59 1555.64 1019.54 1556.14C1019.55 1556.61 1019.54 1557.05 1019.51 1557.47C1019.48 1557.88 1019.45 1558.18 1019.42 1558.34C1021.31 1557.94 1023.03 1557.11 1024.6 1555.86C1026.16 1554.6 1027.5 1553.2 1028.61 1551.65C1029.72 1550.07 1030.54 1548.45 1031.07 1546.81C1031.65 1545.13 1031.89 1543.72 1031.79 1542.56C1031.69 1541.4 1031.19 1540.62 1030.29 1540.21C1029.43 1539.77 1028.13 1539.97 1026.38 1540.82C1024.72 1541.64 1023.46 1542.5 1022.59 1543.41C1021.76 1544.28 1021.13 1545.25 1020.7 1546.32C1020.31 1547.35 1020.08 1548.5 1019.99 1549.75C1019.91 1550.96 1019.81 1552.32 1019.68 1553.82ZM1041.03 1578.6C1043.04 1572.22 1044.38 1565.82 1045.05 1559.38C1045.76 1552.95 1045.63 1546.42 1044.69 1539.79C1044.57 1539.23 1044.65 1538.77 1044.91 1538.44C1045.18 1538.1 1045.5 1537.95 1045.88 1537.97C1046.27 1537.95 1046.61 1538.13 1046.93 1538.53C1047.25 1538.88 1047.45 1539.46 1047.52 1540.27C1047.53 1543.74 1047.42 1547.21 1047.22 1550.68C1047.06 1554.12 1046.93 1557.61 1046.84 1561.14C1047.73 1562.14 1048.77 1562.5 1049.95 1562.24C1051.18 1561.98 1052.47 1561.35 1053.82 1560.36C1055.17 1559.36 1056.52 1558.13 1057.87 1556.67C1059.26 1555.17 1060.56 1553.72 1061.77 1552.32C1063.02 1550.93 1064.12 1549.68 1065.07 1548.57C1066.06 1547.47 1066.83 1546.79 1067.38 1546.55C1068.39 1546.04 1068.85 1546.08 1068.75 1546.66C1068.66 1547.19 1068.2 1548.02 1067.38 1549.15C1066.56 1550.28 1065.49 1551.6 1064.17 1553.11C1062.87 1554.58 1061.51 1556.02 1060.09 1557.42C1058.71 1558.8 1057.39 1560.01 1056.11 1561.06C1054.87 1562.12 1053.91 1562.8 1053.23 1563.11C1053.13 1563.18 1052.95 1563.25 1052.68 1563.33C1052.46 1563.42 1052.21 1563.53 1051.93 1563.65C1051.66 1563.77 1051.38 1563.9 1051.11 1564.02C1050.84 1564.1 1050.66 1564.15 1050.57 1564.18L1050.49 1564.67C1050.48 1564.71 1050.61 1564.86 1050.86 1565.12C1051.12 1565.33 1051.41 1565.59 1051.74 1565.9C1052.11 1566.22 1052.48 1566.53 1052.85 1566.85C1053.22 1567.16 1053.51 1567.42 1053.73 1567.63C1054.44 1568.17 1055.29 1568.89 1056.28 1569.77C1057.32 1570.67 1058.4 1571.61 1059.54 1572.61C1060.73 1573.57 1061.95 1574.51 1063.18 1575.44C1064.46 1576.38 1065.74 1577.19 1067.02 1577.87C1068.3 1578.55 1069.53 1579.03 1070.71 1579.31C1071.93 1579.6 1073.03 1579.58 1074.02 1579.24C1075.04 1578.91 1075.95 1578.19 1076.72 1577.1C1077.5 1576.01 1078.09 1574.41 1078.48 1572.33L1079.71 1572.53C1079.92 1572.57 1080.04 1572.88 1080.06 1573.48C1080.09 1574.08 1080.01 1574.8 1079.82 1575.66C1079.68 1576.48 1079.4 1577.36 1078.99 1578.31C1078.58 1579.21 1078.02 1580.02 1077.31 1580.75C1076.6 1581.43 1075.71 1581.94 1074.65 1582.26C1073.62 1582.6 1072.39 1582.58 1070.98 1582.21C1068.99 1581.71 1066.98 1580.84 1064.95 1579.61C1062.92 1578.38 1060.93 1577.01 1058.99 1575.49C1057.06 1573.94 1055.2 1572.34 1053.4 1570.68C1051.65 1569.03 1050.05 1567.56 1048.58 1566.25C1048.47 1566.15 1048.19 1566.02 1047.75 1565.86C1047.36 1565.67 1047.13 1565.54 1047.06 1565.49L1046.63 1565.41C1045.97 1567.8 1045.4 1570.26 1044.93 1572.8C1044.51 1575.3 1043.83 1577.66 1042.91 1579.87C1042.86 1579.91 1042.71 1579.92 1042.46 1579.92C1042.21 1579.92 1041.94 1579.9 1041.65 1579.85C1041.41 1579.77 1041.2 1579.62 1041.02 1579.43C1040.89 1579.23 1040.89 1578.96 1041.03 1578.6ZM1077.6 1584.66C1077.17 1583.96 1077.08 1583.33 1077.35 1582.78C1077.66 1582.2 1078.1 1581.56 1078.69 1580.85C1080.08 1580.58 1081.1 1580.61 1081.72 1580.92C1082.38 1581.25 1082.75 1581.69 1082.82 1582.25C1082.9 1582.81 1082.75 1583.42 1082.39 1584.08C1082.03 1584.7 1081.57 1585.19 1081 1585.56C1080.43 1585.92 1079.83 1586.08 1079.21 1586.01C1078.59 1585.95 1078.05 1585.5 1077.6 1584.66ZM1082.79 1562.6C1083.11 1560.2 1083.61 1557.77 1084.28 1555.3C1084.99 1552.85 1085.46 1550.43 1085.69 1548.06C1085.87 1546.49 1086.09 1545.07 1086.35 1543.8C1086.61 1542.49 1086.76 1541.65 1086.78 1541.27C1086.81 1540.86 1086.78 1540.37 1086.71 1539.81C1086.68 1539.25 1086.69 1538.7 1086.73 1538.16C1086.82 1537.63 1086.99 1537.17 1087.22 1536.79C1087.5 1536.37 1087.97 1536.13 1088.61 1536.07C1089.51 1535.97 1090.12 1536.41 1090.41 1537.39C1090.29 1538.38 1090.07 1539.82 1089.75 1541.71C1089.43 1543.56 1089.1 1545.51 1088.76 1547.57C1088.41 1549.62 1088.07 1551.59 1087.75 1553.48C1087.44 1555.37 1087.21 1556.81 1087.09 1557.81C1087.05 1558.01 1086.84 1558.53 1086.45 1559.35C1086.1 1560.13 1085.68 1560.89 1085.18 1561.6C1084.72 1562.33 1084.25 1562.86 1083.76 1563.2C1083.33 1563.55 1083 1563.35 1082.79 1562.6Z" fill="white"/>
<path id="Arrow 1" d="M78.3602 1565.86C79.1096 1566.21 80.0034 1565.89 80.3566 1565.14L86.1133 1552.93C86.4666 1552.18 86.1455 1551.29 85.3962 1550.93C84.6469 1550.58 83.753 1550.9 83.3998 1551.65L78.2827 1562.5L67.4284 1557.39C66.6791 1557.03 65.7853 1557.36 65.432 1558.1C65.0787 1558.85 65.3998 1559.75 66.1491 1560.1L78.3602 1565.86ZM244.897 1422.05C203.753 1410.76 148.07 1407.29 109.525 1426.28C90.1804 1435.81 75.119 1451.02 68.4745 1473.7C61.8453 1496.34 63.6523 1526.21 77.5882 1565.01L80.4115 1563.99C66.5974 1525.54 64.9671 1496.35 71.3535 1474.55C77.7246 1452.8 92.132 1438.19 110.85 1428.97C148.43 1410.46 203.247 1413.74 244.103 1424.95L244.897 1422.05Z" fill="white"/>
<g id="OuterCircle" filter="url(#filter0_f_310_86)" class="ring-slow">
<circle cx="674.5" cy="429.501" r="374" stroke="#2DA09D" stroke-opacity="0.25" stroke-width="7"/>
</g>
<g id="InnerCircle" class="ring">
<g id="Ellipse 50" filter="url(#filter1_f_310_86)">
<circle cx="674.5" cy="429.5" r="280" stroke="#105D5B" stroke-opacity="0.5" stroke-width="7"/>
</g>
<g id="Ellipse 51" filter="url(#filter2_f_310_86)">
<circle cx="674.5" cy="429.5" r="280" stroke="#13C9C4" stroke-opacity="0.5" stroke-width="7"/>
</g>
</g>
<g id="Ellipse 52" filter="url(#filter3_f_310_86)" class="ring-half">
<circle cx="674.5" cy="429.5" r="163.5" fill="#00FFF8" fill-opacity="0.2"/>
</g>
<path id="Stay Classy" d="M605.25 274.188C601.792 275.605 598.833 277.771 596.375 280.688C593.917 283.605 592.688 286.542 592.688 289.5C592.688 292.459 593.292 295.042 594.5 297.25C595.75 299.459 597.375 301.542 599.375 303.5C601.375 305.417 603.562 307.396 605.938 309.438C608.312 311.438 610.688 313.563 613.062 315.813C615.479 318.021 617.688 320.334 619.688 322.75C624.146 328.125 626.375 334.125 626.375 340.75C626.375 344.792 625.521 348.563 623.812 352.063C622.104 355.521 619.833 358.459 617 360.875C614.208 363.292 610.979 365.375 607.312 367.125C600.146 370.542 592.458 372.25 584.25 372.25C579.417 372.25 574.958 371.063 570.875 368.688C568.875 367.521 567.25 365.938 566 363.938C564.75 361.98 564.125 359.709 564.125 357.125C564.125 354.542 565.125 352.417 567.125 350.75C569.125 349.084 571.583 348.188 574.5 348.063L577.188 347.938C577.021 350.188 576.938 352.084 576.938 353.625C576.938 355.167 576.938 356.23 576.938 356.813C576.979 357.396 577.062 358.23 577.188 359.313C577.354 360.396 577.562 361.188 577.812 361.688C578.104 362.23 578.542 362.855 579.125 363.563C579.708 364.313 580.417 364.855 581.25 365.188C583.5 366.063 585.854 366.5 588.312 366.5C590.771 366.5 593.083 366.23 595.25 365.688C597.417 365.146 599.542 364.334 601.625 363.25C603.708 362.167 605.583 360.875 607.25 359.375C610.958 356.042 612.812 352.021 612.812 347.313C612.812 342.855 610.583 338.021 606.125 332.813C603.875 330.188 600.417 326.563 595.75 321.938C591.125 317.271 587.812 313.792 585.812 311.5C581.354 306.334 579.125 301.688 579.125 297.563C579.125 293.438 579.938 289.688 581.562 286.313C583.229 282.938 585.417 280.063 588.125 277.688C590.833 275.271 593.917 273.167 597.375 271.375C604.208 267.875 611.312 266.125 618.688 266.125C623.688 266.125 628.333 267.417 632.625 270C634.833 271.292 636.625 273.188 638 275.688C639.375 278.146 640.062 281.021 640.062 284.313C640.062 285.146 635.958 287.959 627.75 292.75C619.542 297.542 614.333 300.334 612.125 301.125V294.938C612.708 294.605 614.625 293.667 617.875 292.125C625.167 288.709 628.812 286.146 628.812 284.438C628.812 276.188 624.458 272.063 615.75 272.063C612.208 272.063 608.708 272.771 605.25 274.188ZM645.125 315.063C644.542 315.063 644.042 315.063 643.625 315.063C643.25 315.063 642.875 315.063 642.5 315.063C642.125 315.021 641.833 314.98 641.625 314.938C641.417 314.896 641.167 314.834 640.875 314.75C640.625 314.667 640.417 314.563 640.25 314.438C640.083 314.313 639.917 314.167 639.75 314C639.458 313.667 639.312 313.23 639.312 312.688C639.312 312.105 639.333 311.73 639.375 311.563C639.542 311.146 640.292 310.855 641.625 310.688L646.875 310.188C648.833 303.688 650.208 299.563 651 297.813C651.792 296.021 652.542 294.417 653.25 293C654 291.584 654.708 290.48 655.375 289.688C656.083 288.896 656.896 288.042 657.812 287.125C658.729 286.209 659.688 285.521 660.688 285.063C663.062 283.98 665.5 283.438 668 283.438L668.25 283.688C668.25 283.855 667.708 285.48 666.625 288.563C663.042 298.813 660.646 306.021 659.438 310.188L678.5 309.313L677.125 311.563C676.083 313.48 669.854 314.438 658.438 314.438C658.396 314.438 657.75 316.75 656.5 321.375C652.75 335.167 650.875 343.521 650.875 346.438C650.875 349.396 651.208 351.105 651.875 351.563C652.542 351.98 653.229 352.188 653.938 352.188C656.188 352.188 664.125 345.73 677.75 332.813V339.875C676.333 341.167 674.375 342.98 671.875 345.313C669.375 347.646 667.396 349.48 665.938 350.813C664.521 352.105 662.729 353.625 660.562 355.375C658.438 357.125 656.625 358.459 655.125 359.375C651.292 361.667 647.917 362.813 645 362.813C640.042 362.813 637.562 359.355 637.562 352.438C637.562 348.646 638.146 344.188 639.312 339.063C640.521 333.896 641.542 329.688 642.375 326.438C643.208 323.146 644.125 319.355 645.125 315.063ZM678.375 362.813C673.375 362.813 670.292 359.292 669.125 352.25C668.875 350.542 668.75 348.771 668.75 346.938C668.75 342.396 669.875 337.813 672.125 333.188C674.375 328.563 677.333 324.438 681 320.813C684.708 317.188 689.125 314.23 694.25 311.938C699.417 309.646 704.688 308.5 710.062 308.5C712.688 308.5 716.188 309.188 720.562 310.563C720.521 310.855 720.104 312.771 719.312 316.313C718.521 319.813 717.729 323.396 716.938 327.063C714.771 337.105 713.688 343.334 713.688 345.75C713.688 348.167 714.312 349.375 715.562 349.375C718.312 349.375 724.688 344.084 734.688 333.5V340.5C728.354 347.042 722.312 352.396 716.562 356.563C710.854 360.73 707.042 362.813 705.125 362.813C701.958 362.813 700.375 360.084 700.375 354.625C700.375 352.834 700.542 350.813 700.875 348.563C697.875 352.48 694.375 355.834 690.375 358.625C686.417 361.417 682.417 362.813 678.375 362.813ZM682.062 343.438C682.062 349.688 684.104 352.813 688.188 352.813C689.938 352.813 692.083 351.896 694.625 350.063C697.208 348.23 699.542 346.209 701.625 344L708.812 313.25C704.312 313.25 699.958 314.855 695.75 318.063C691.542 321.271 688.208 325.209 685.75 329.875C683.292 334.542 682.062 339.063 682.062 343.438ZM758.375 348.813C748.667 358.146 740.479 362.813 733.812 362.813C731.229 362.813 729.354 361.813 728.188 359.813C727.062 357.813 726.5 355.23 726.5 352.063C726.5 346.771 730.25 333.459 737.75 312.125C737.917 311.084 741.292 310.563 747.875 310.563H750.062C750.062 310.646 749.208 313.375 747.5 318.75C742.375 334.875 739.812 344.438 739.812 347.438C739.812 350.438 741.208 351.938 744 351.938C746.375 351.938 749.312 350.917 752.812 348.875C756.354 346.834 758.417 345.209 759 344L765.812 318C766.729 314.459 767.979 312.292 769.562 311.5C770.771 310.875 772.708 310.563 775.375 310.563H779.625C778.667 313.271 777.333 317.73 775.625 323.938C773.958 330.146 772.771 334.542 772.062 337.125C770.521 342.75 769.458 346.73 768.875 349.063L768.375 350.75C777.875 342.834 784.479 337.084 788.188 333.5V340.5L767.312 359.313V359.563C766.354 364.855 764.833 369.605 762.75 373.813C760.708 378.021 758.396 381.375 755.812 383.875C750.521 389 745.104 391.563 739.562 391.563C736.688 391.563 734 390.646 731.5 388.813C729 386.98 727.75 384.813 727.75 382.313C727.75 379.813 728.583 377.688 730.25 375.938C731.958 374.23 734.375 372.5 737.5 370.75L756.312 358.813L758.375 348.813ZM755.562 366.5L744 373.813C742.625 374.646 741.521 375.355 740.688 375.938C739.896 376.563 739.104 377.438 738.312 378.563C737.521 379.688 737.125 380.875 737.125 382.125C737.125 385.542 738.667 387.25 741.75 387.25C745.458 387.25 748.458 385.355 750.75 381.563C753.042 377.771 754.646 372.75 755.562 366.5ZM589.812 469.188C587.562 458.021 584.021 452.438 579.188 452.438C574.604 452.605 570.208 453.667 566 455.625C561.833 457.584 558.188 460.146 555.062 463.313C551.938 466.48 549.229 470.063 546.938 474.063C542.229 482.188 539.875 491.23 539.875 501.188C539.875 511.146 542.375 518.98 547.375 524.688C552.417 530.355 559.042 533.188 567.25 533.188C573.708 533.188 580.562 531.459 587.812 528C595.062 524.5 602.125 519.438 609 512.813V519.75C591.5 536.292 575.104 544.563 559.812 544.563C546.979 544.563 537.562 539 531.562 527.875C528.146 521.417 526.438 514.105 526.438 505.938C526.438 494.23 529.667 482.917 536.125 472C540.5 464.542 546.417 458.417 553.875 453.625C561.625 448.625 570.688 446.125 581.062 446.125C587.271 446.125 592.562 448.271 596.938 452.563C601.312 456.855 603.5 461.792 603.5 467.375C603.5 469.792 602.562 471.48 600.688 472.438C598.812 473.355 594.188 475.834 586.812 479.875C576.479 485.625 570.896 488.5 570.062 488.5C568.438 488.5 567.625 487.646 567.625 485.938C567.625 483.896 571.312 481.271 578.688 478.063C581.479 476.855 584.021 475.438 586.312 473.813C588.646 472.188 589.812 470.646 589.812 469.188ZM642.938 452.438C640.021 452.438 637.167 456.5 634.375 464.625C631.625 472.75 628.458 485.334 624.875 502.375C628 499.167 630.938 495.313 633.688 490.813C636.438 486.271 638.646 481.875 640.312 477.625C643.854 468.667 645.625 462.23 645.625 458.313C645.625 454.396 644.729 452.438 642.938 452.438ZM611.812 542.813C610.354 542.813 609.354 542.438 608.812 541.688C608.271 540.938 607.854 540.313 607.562 539.813C607.271 539.271 607.042 538.563 606.875 537.688C606.708 536.813 606.562 536.063 606.438 535.438C606.354 534.813 606.292 533.98 606.25 532.938C606.208 531.855 606.188 531.042 606.188 530.5V528.063C606.188 520.021 607.292 511.125 609.5 501.375C611.75 491.625 614.604 482.625 618.062 474.375C621.562 466.125 625.646 459.209 630.312 453.625C634.979 448.042 639.521 445.25 643.938 445.25C646.646 445.25 648.771 446.188 650.312 448.063C651.896 449.896 652.688 452.646 652.688 456.313C652.688 459.938 652.125 464.021 651 468.563C649.917 473.063 648.5 477.209 646.75 481C645 484.75 643.062 488.417 640.938 492C638.812 495.542 636.688 498.667 634.562 501.375C630.229 506.875 626.854 510.75 624.438 513L622.812 514.625C620.354 521.125 619.125 525.938 619.125 529.063C619.125 532.146 619.854 533.688 621.312 533.688C622.354 533.688 625.208 531.396 629.875 526.813C634.542 522.23 638.812 517.792 642.688 513.5V520.5C635.521 528.209 629.583 533.792 624.875 537.25C620.208 540.667 615.854 542.521 611.812 542.813ZM644.562 542.813C639.562 542.813 636.479 539.292 635.312 532.25C635.062 530.542 634.938 528.771 634.938 526.938C634.938 522.396 636.062 517.813 638.312 513.188C640.562 508.563 643.521 504.438 647.188 500.813C650.896 497.188 655.312 494.23 660.438 491.938C665.604 489.646 670.875 488.5 676.25 488.5C678.875 488.5 682.375 489.188 686.75 490.563C686.708 490.855 686.292 492.771 685.5 496.313C684.708 499.813 683.917 503.396 683.125 507.063C680.958 517.105 679.875 523.334 679.875 525.75C679.875 528.167 680.5 529.375 681.75 529.375C684.5 529.375 690.875 524.084 700.875 513.5V520.5C694.542 527.042 688.5 532.396 682.75 536.563C677.042 540.73 673.229 542.813 671.312 542.813C668.146 542.813 666.562 540.084 666.562 534.625C666.562 532.834 666.729 530.813 667.062 528.563C664.062 532.48 660.562 535.834 656.562 538.625C652.604 541.417 648.604 542.813 644.562 542.813ZM648.25 523.438C648.25 529.688 650.292 532.813 654.375 532.813C656.125 532.813 658.271 531.896 660.812 530.063C663.396 528.23 665.729 526.209 667.812 524L675 493.25C670.5 493.25 666.146 494.855 661.938 498.063C657.729 501.271 654.396 505.209 651.938 509.875C649.479 514.542 648.25 519.063 648.25 523.438ZM714.438 540.563C713.021 541.146 711.458 541.667 709.75 542.125C708.083 542.584 706.396 542.813 704.688 542.813C703.021 542.813 701.25 542.646 699.375 542.313C697.542 541.98 695.729 541.438 693.938 540.688C689.854 539.021 687.812 536.146 687.812 532.063C687.812 530.438 688.417 528.584 689.625 526.5C690.833 524.417 692.146 522.584 693.562 521C695.021 519.417 696.729 517.605 698.688 515.563C700.646 513.521 701.979 512.063 702.688 511.188C701.562 508.396 701 505.355 701 502.063C701 497.188 702.5 493.167 705.5 490C708.5 486.792 712.979 485.188 718.938 485.188C721.562 485.188 722.875 485.917 722.875 487.375C722.875 489.959 721.75 491.98 719.5 493.438C717.292 494.855 714.917 495.563 712.375 495.563C713.792 499.855 716.188 503.709 719.562 507.125C720.812 508.459 722.021 509.73 723.188 510.938C725.896 513.688 727.25 516.063 727.25 518.063C727.25 521.146 725.792 524.688 722.875 528.688L741.438 513.5V520.375C740.938 520.792 739.688 521.875 737.688 523.625C735.729 525.375 734.292 526.646 733.375 527.438C732.5 528.188 731.042 529.375 729 531C727 532.625 725.375 533.875 724.125 534.75C722.917 535.584 721.354 536.605 719.438 537.813C717.521 539.021 715.854 539.938 714.438 540.563ZM705.375 516.063C705.042 516.438 703.771 517.625 701.562 519.625C696.646 524 694.188 527.375 694.188 529.75C694.188 532.084 695.396 534.063 697.812 535.688C700.229 537.271 702.833 538.063 705.625 538.063C708.417 538.063 710.667 537.605 712.375 536.688C714.083 535.73 714.938 534.521 714.938 533.063C714.938 531.605 714.75 530.292 714.375 529.125C714 527.959 713.396 526.75 712.562 525.5C711.771 524.209 711.062 523.167 710.438 522.375C709.854 521.542 708.958 520.417 707.75 519C706.542 517.542 705.75 516.563 705.375 516.063ZM754.812 540.563C753.396 541.146 751.833 541.667 750.125 542.125C748.458 542.584 746.771 542.813 745.062 542.813C743.396 542.813 741.625 542.646 739.75 542.313C737.917 541.98 736.104 541.438 734.312 540.688C730.229 539.021 728.188 536.146 728.188 532.063C728.188 530.438 728.792 528.584 730 526.5C731.208 524.417 732.521 522.584 733.938 521C735.396 519.417 737.104 517.605 739.062 515.563C741.021 513.521 742.354 512.063 743.062 511.188C741.938 508.396 741.375 505.355 741.375 502.063C741.375 497.188 742.875 493.167 745.875 490C748.875 486.792 753.354 485.188 759.312 485.188C761.938 485.188 763.25 485.917 763.25 487.375C763.25 489.959 762.125 491.98 759.875 493.438C757.667 494.855 755.292 495.563 752.75 495.563C754.167 499.855 756.562 503.709 759.938 507.125C761.188 508.459 762.396 509.73 763.562 510.938C766.271 513.688 767.625 516.063 767.625 518.063C767.625 521.146 766.167 524.688 763.25 528.688L781.812 513.5V520.375C781.312 520.792 780.062 521.875 778.062 523.625C776.104 525.375 774.667 526.646 773.75 527.438C772.875 528.188 771.417 529.375 769.375 531C767.375 532.625 765.75 533.875 764.5 534.75C763.292 535.584 761.729 536.605 759.812 537.813C757.896 539.021 756.229 539.938 754.812 540.563ZM745.75 516.063C745.417 516.438 744.146 517.625 741.938 519.625C737.021 524 734.562 527.375 734.562 529.75C734.562 532.084 735.771 534.063 738.188 535.688C740.604 537.271 743.208 538.063 746 538.063C748.792 538.063 751.042 537.605 752.75 536.688C754.458 535.73 755.312 534.521 755.312 533.063C755.312 531.605 755.125 530.292 754.75 529.125C754.375 527.959 753.771 526.75 752.938 525.5C752.146 524.209 751.438 523.167 750.812 522.375C750.229 521.542 749.333 520.417 748.125 519C746.917 517.542 746.125 516.563 745.75 516.063ZM805.562 528.813C795.854 538.146 787.667 542.813 781 542.813C778.417 542.813 776.542 541.813 775.375 539.813C774.25 537.813 773.688 535.23 773.688 532.063C773.688 526.771 777.438 513.459 784.938 492.125C785.104 491.084 788.479 490.563 795.062 490.563H797.25C797.25 490.646 796.396 493.375 794.688 498.75C789.562 514.875 787 524.438 787 527.438C787 530.438 788.396 531.938 791.188 531.938C793.562 531.938 796.5 530.917 800 528.875C803.542 526.834 805.604 525.209 806.188 524L813 498C813.917 494.459 815.167 492.292 816.75 491.5C817.958 490.875 819.896 490.563 822.562 490.563H826.812C825.854 493.271 824.521 497.73 822.812 503.938C821.146 510.146 819.958 514.542 819.25 517.125C817.708 522.75 816.646 526.73 816.062 529.063L815.562 530.75C825.062 522.834 831.667 517.084 835.375 513.5V520.5L814.5 539.313V539.563C813.542 544.855 812.021 549.605 809.938 553.813C807.896 558.021 805.583 561.375 803 563.875C797.708 569 792.292 571.563 786.75 571.563C783.875 571.563 781.188 570.646 778.688 568.813C776.188 566.98 774.938 564.813 774.938 562.313C774.938 559.813 775.771 557.688 777.438 555.938C779.146 554.23 781.562 552.5 784.688 550.75L803.5 538.813L805.562 528.813ZM802.75 546.5L791.188 553.813C789.812 554.646 788.708 555.355 787.875 555.938C787.083 556.563 786.292 557.438 785.5 558.563C784.708 559.688 784.312 560.875 784.312 562.125C784.312 565.542 785.854 567.25 788.938 567.25C792.646 567.25 795.646 565.355 797.938 561.563C800.229 557.771 801.833 552.75 802.75 546.5Z" fill="#D0FFFE"/>
</g>
<defs>
<filter id="filter0_f_310_86" x="272" y="27.0007" width="805" height="805" filterUnits="userSpaceOnUse" color-interpolation-filters="sRGB">
<feFlood flood-opacity="0" result="BackgroundImageFix"/>
<feBlend mode="normal" in="SourceGraphic" in2="BackgroundImageFix" result="shape"/>
<feGaussianBlur stdDeviation="12.5" result="effect1_foregroundBlur_310_86"/>
</filter>
<filter id="filter1_f_310_86" x="366" y="121" width="617" height="617" filterUnits="userSpaceOnUse" color-interpolation-filters="sRGB">
<feFlood flood-opacity="0" result="BackgroundImageFix"/>
<feBlend mode="normal" in="SourceGraphic" in2="BackgroundImageFix" result="shape"/>
<feGaussianBlur stdDeviation="12.5" result="effect1_foregroundBlur_310_86"/>
</filter>
<filter id="filter2_f_310_86" x="366" y="121" width="617" height="617" filterUnits="userSpaceOnUse" color-interpolation-filters="sRGB">
<feFlood flood-opacity="0" result="BackgroundImageFix"/>
<feBlend mode="normal" in="SourceGraphic" in2="BackgroundImageFix" result="shape"/>
<feGaussianBlur stdDeviation="12.5" result="effect1_foregroundBlur_310_86"/>
</filter>
<filter id="filter3_f_310_86" x="411" y="166" width="527" height="527" filterUnits="userSpaceOnUse" color-interpolation-filters="sRGB">
<feFlood flood-opacity="0" result="BackgroundImageFix"/>
<feBlend mode="normal" in="SourceGraphic" in2="BackgroundImageFix" result="shape"/>
<feGaussianBlur stdDeviation="50" result="effect1_foregroundBlur_310_86"/>
</filter>
<linearGradient id="paint0_linear_310_86" x1="675.001" y1="1219" x2="674.999" y2="1254.5" gradientUnits="userSpaceOnUse">
<stop stop-color="white"/>
<stop offset="1" stop-color="white"/>
</linearGradient>
</defs>
</svg>
